<svg width="295" height="113" viewBox="0 0 295 113" fill="none" xmlns="http://www.w3.org/2000/svg">
<rect x="0.25" width="294" height="113" rx="15" fill="white"/>
<g clip-path="url(#clip0_2091_2775)">
<path d="M73.2066 46.2859C64.1247 46.2859 57.0284 53.0785 57.0284 62.1719C57.0284 71.2652 63.9454 77.9997 73.2066 77.9997C82.4678 77.9997 89.505 71.149 89.505 62.1137C89.505 53.1367 82.5881 46.2859 73.2066 46.2859ZM73.2679 71.4463C68.096 71.4463 64.3062 67.4888 64.3062 62.1741C64.3062 56.799 68.0348 52.8438 73.2066 52.8438C78.4397 52.8438 82.2272 56.8594 82.2272 62.1741C82.2272 67.4888 78.4397 71.4463 73.2679 71.4463ZM91.4884 53.197H95.9999V77.4117H103.216V46.8762H91.4884V53.197ZM38.8669 52.8415C42.6567 52.8415 45.6636 55.1445 46.805 58.5699H54.4437C53.0594 51.2473 46.9253 46.2859 38.9282 46.2859C29.8462 46.2859 22.75 53.0785 22.75 62.1741C22.75 71.2697 29.667 78.002 38.9282 78.002C46.746 78.002 53.0004 73.0405 54.3847 65.6576H46.805C45.7226 69.083 42.7157 71.4463 38.9259 71.4463C33.6928 71.4463 30.0255 67.4888 30.0255 62.1741C30.0278 56.799 33.636 52.8415 38.8669 52.8415ZM228.607 59.2205L223.315 58.4536C220.789 58.1003 218.985 57.2731 218.985 55.3234C218.985 53.197 221.331 52.135 224.517 52.135C228.005 52.135 230.232 53.6107 230.713 56.0321H237.689C236.906 49.8902 232.095 46.2881 224.699 46.2881C217.06 46.2881 212.009 50.1272 212.009 55.5604C212.009 60.7566 215.317 63.7705 221.992 64.7141L227.284 65.481C229.871 65.8343 231.314 66.8404 231.314 68.7297C231.314 71.1512 228.788 72.1551 225.3 72.1551C221.029 72.1551 218.624 70.4424 218.263 67.8443H211.167C211.829 73.8097 216.579 78.002 225.239 78.002C233.118 78.002 238.349 74.4581 238.349 68.3742C238.349 62.941 234.561 60.1059 228.607 59.2205ZM99.6081 34.2971C96.9621 34.2971 94.9764 36.1864 94.9764 38.7845C94.9764 41.3826 96.9598 43.2719 99.6081 43.2719C102.254 43.2719 104.24 41.3826 104.24 38.7845C104.24 36.1864 102.254 34.2971 99.6081 34.2971ZM205.514 57.3312C205.514 50.7174 201.425 46.2881 192.765 46.2881C184.586 46.2881 180.016 50.3642 179.112 56.6246H186.27C186.631 54.2032 188.555 52.1954 192.644 52.1954C196.314 52.1954 198.118 53.7895 198.118 55.7392C198.118 58.2792 194.809 58.9276 190.72 59.3412C185.187 59.9315 178.332 61.8208 178.332 68.9086C178.332 74.4022 182.482 77.9438 189.097 77.9438C194.269 77.9438 197.517 75.8175 199.142 72.4502C199.382 75.462 201.667 77.4117 204.856 77.4117H209.065V71.0931H205.516V57.3312H205.514ZM198.418 65.0092C198.418 69.0852 194.809 72.097 190.418 72.097C187.711 72.097 185.426 70.9746 185.426 68.6135C185.426 65.6017 189.095 64.7745 192.463 64.4212C195.71 64.126 197.514 63.4173 198.418 62.0579V65.0092ZM160.109 46.2859C156.078 46.2859 152.711 47.9405 150.305 50.7152V34.002H143.089V77.4117H150.185V73.396C152.591 76.2893 156.02 78.002 160.109 78.002C168.769 78.002 175.325 71.2697 175.325 62.1741C175.325 53.0785 168.648 46.2859 160.109 46.2859ZM159.026 71.4463C153.855 71.4463 150.065 67.4888 150.065 62.1741C150.065 56.8594 153.914 52.8438 159.085 52.8438C164.318 52.8438 167.986 56.8013 167.986 62.1741C167.986 67.4888 164.198 71.4463 159.026 71.4463ZM125.828 46.2859C121.137 46.2859 118.069 48.1752 116.265 50.8337V46.8762H109.108V77.4094H116.324V60.8147C116.324 56.1484 119.331 52.8415 123.781 52.8415C127.932 52.8415 130.517 55.7348 130.517 59.9293V77.4117H137.733V59.3994C137.735 51.7191 133.707 46.2859 125.828 46.2859ZM272.75 61.1702C272.75 52.4301 266.255 46.2881 257.534 46.2881C248.273 46.2881 241.476 53.1389 241.476 62.1741C241.476 71.6833 248.754 78.002 257.654 78.002C265.173 78.002 271.066 73.6308 272.568 67.4307H265.05C263.968 70.1473 261.322 71.6833 257.772 71.6833C253.141 71.6833 249.653 68.8482 248.872 63.8868H272.748V61.1702H272.75ZM249.294 58.8069C250.438 54.5542 253.685 52.4883 257.414 52.4883C261.503 52.4883 264.63 54.7912 265.352 58.8069H249.294Z" fill="#0052FF"/>
</g>
<defs>
<clipPath id="clip0_2091_2775">
<rect width="250" height="44.8718" fill="white" transform="translate(22.75 34.002)"/>
</clipPath>
</defs>
</svg>
