<svg width="295" height="113" viewBox="0 0 295 113" fill="none" xmlns="http://www.w3.org/2000/svg">
<rect x="0.25" width="294" height="113" rx="15" fill="#313131"/>
<g clip-path="url(#clip0_2091_2808)">
<path d="M51.1009 52.4902L59.5796 43.9481L68.0618 52.4972L72.9925 47.5241L59.5796 34.002L46.1667 47.5206L51.1009 52.4902Z" fill="#F3BA2F"/>
<path d="M37.7483 56.0027L42.6806 51.0314L47.613 56.0027L42.6806 60.9739L37.7483 56.0027Z" fill="#F3BA2F"/>
<path d="M51.1008 59.5137L59.5796 68.0593L68.0617 59.5103L72.9959 64.4764L72.9924 64.4798L59.5796 78.002L46.1667 64.4868L46.1598 64.4798L51.1008 59.5137Z" fill="#F3BA2F"/>
<path d="M71.5378 56.0039L76.4702 51.0327L81.4025 56.0039L76.4702 60.9752L71.5378 56.0039Z" fill="#F3BA2F"/>
<path d="M64.5827 56.0001L59.5796 50.9541L55.8798 54.683L55.4523 55.1105L54.5765 55.9932L54.5696 56.0001L54.5765 56.0106L59.5796 61.0497L64.5827 56.0036L64.5861 56.0001H64.5827Z" fill="#F3BA2F"/>
<path d="M89.0983 44.6638H99.8286C102.49 44.6638 104.504 45.3589 105.87 46.749C106.384 47.2625 106.789 47.8759 107.062 48.5522C107.334 49.2284 107.467 49.9533 107.452 50.6829V50.749C107.461 51.3466 107.379 51.9422 107.207 52.5144C107.055 53.007 106.833 53.4751 106.549 53.9045C106.284 54.3094 105.964 54.6745 105.597 54.9888C105.239 55.2993 104.847 55.5675 104.428 55.7881C105.636 56.2119 106.721 56.9279 107.59 57.8732C108.358 58.7536 108.742 59.9699 108.742 61.5222V61.5882C108.764 62.5577 108.554 63.5182 108.131 64.3893C107.722 65.1918 107.121 65.8796 106.383 66.391C105.549 66.9547 104.62 67.3609 103.642 67.59C102.48 67.8678 101.288 68.002 100.094 67.9896H89.0983V44.6638ZM98.7528 54.0956C99.6811 54.1408 100.605 53.9395 101.432 53.5118C101.754 53.3219 102.018 53.0449 102.192 52.712C102.366 52.3791 102.445 52.0036 102.418 51.6282V51.5622C102.435 51.2162 102.365 50.8715 102.215 50.5599C102.065 50.2483 101.84 49.9799 101.559 49.7794C100.987 49.3693 100.161 49.1643 99.0803 49.1643H94.06V54.0956H98.7528ZM100.108 63.4961C101.033 63.5484 101.953 63.3351 102.763 62.881C103.078 62.6768 103.333 62.3912 103.502 62.0538C103.671 61.7164 103.746 61.3396 103.721 60.9627V60.8967C103.734 60.5384 103.659 60.1825 103.503 59.8602C103.348 59.5379 103.116 59.259 102.828 59.0478C102.235 58.5845 101.277 58.3528 99.9527 58.3528H94.06V63.4961H100.108Z" fill="#F3BA2F"/>
<path d="M115.134 44.6638H120.227V67.9966H115.134V44.6638Z" fill="#F3BA2F"/>
<path d="M127.933 44.6638H132.63L143.484 59.0235V44.6638H148.511V67.9966H144.177L132.968 53.1643V67.9966H127.933V44.6638Z" fill="#F3BA2F"/>
<path d="M163.931 44.4971H168.62L178.54 67.9966H173.223L171.106 62.7629H161.317L159.2 67.9966H154.008L163.931 44.4971ZM169.289 58.2312L166.207 50.6621L163.138 58.2312H169.289Z" fill="#F3BA2F"/>
<path d="M184.047 44.6638H188.743L199.591 59.0235V44.6638H204.618V67.9966H200.284L189.074 53.1643V67.9966H184.047V44.6638Z" fill="#F3BA2F"/>
<path d="M222.947 68.4067C221.324 68.4207 219.715 68.1039 218.217 67.4754C216.806 66.8882 215.526 66.0225 214.453 64.929C213.379 63.8356 212.533 62.5367 211.965 61.1087C211.366 59.6151 211.063 58.0178 211.072 56.4067V56.3407C211.046 53.1651 212.258 50.1061 214.448 47.8229C215.526 46.7076 216.816 45.8234 218.241 45.2234C219.791 44.5762 221.456 44.2534 223.134 44.2747C224.126 44.2672 225.117 44.3568 226.092 44.5423C226.926 44.7013 227.742 44.947 228.526 45.2755C229.238 45.5774 229.914 45.9573 230.544 46.4085C231.157 46.8484 231.734 47.339 232.268 47.875L229.03 51.6422C228.202 50.8729 227.274 50.2216 226.271 49.7065C225.286 49.2316 224.205 48.9937 223.113 49.0114C222.204 49.0016 221.304 49.1869 220.472 49.5548C219.639 49.9226 218.894 50.4648 218.286 51.1452C217.682 51.8239 217.21 52.61 216.893 53.4632C216.561 54.3649 216.393 55.3198 216.4 56.2816V56.3477C216.396 57.3081 216.563 58.2613 216.893 59.1626C217.206 60.0189 217.674 60.8094 218.272 61.4945C218.876 62.1833 219.619 62.7335 220.452 63.1076C221.285 63.4817 222.187 63.6711 223.099 63.663C224.26 63.6999 225.413 63.4481 226.454 62.9298C227.446 62.385 228.363 61.7121 229.182 60.928L232.423 64.2295C231.85 64.8555 231.231 65.4364 230.571 65.9671C229.922 66.4841 229.218 66.9259 228.471 67.2842C227.675 67.6617 226.837 67.9406 225.975 68.1148C224.978 68.3162 223.964 68.414 222.947 68.4067Z" fill="#F3BA2F"/>
<path d="M238.433 44.6638H255.856V49.2303H243.443V53.9636H254.373V58.53H243.46V63.4301H256.028V67.9966H238.443L238.433 44.6638Z" fill="#F3BA2F"/>
</g>
<defs>
<clipPath id="clip0_2091_2808">
<rect width="218.275" height="44" fill="white" transform="translate(37.75 34.002)"/>
</clipPath>
</defs>
</svg>
