<svg width="295" height="113" viewBox="0 0 295 113" fill="none" xmlns="http://www.w3.org/2000/svg">
<rect x="0.25" width="294" height="113" rx="15" fill="white"/>
<g clip-path="url(#clip0_2091_2784)">
<path d="M93.8715 65.1226C89.3802 65.1226 86.597 61.2773 86.597 55.957C86.597 50.6895 88.9393 46.7651 93.8438 46.7651C97.0675 46.7651 99.1893 48.7404 99.5755 51.3479H107.07C106.684 48.1083 105.169 45.2638 102.524 43.3675C100.374 41.7872 97.3984 40.8127 93.8715 40.8127C84.8335 40.8127 78.9644 47.3445 78.9644 55.957C78.9644 64.6222 85.0264 70.9696 93.9268 70.9696C98.1973 70.9696 101.311 69.8371 103.626 67.6774C105.692 65.7811 107.07 63.1473 107.263 60.2765H99.768C99.4377 63.0946 97.233 65.1226 93.8715 65.1226Z" fill="#262626"/>
<path d="M121.096 49.0564C114.152 49.0564 109.495 53.7972 109.495 60.0393C109.495 66.2814 114.152 71.0223 121.096 71.0223C128.094 71.0223 132.669 66.2814 132.669 60.0393C132.669 53.7972 128.094 49.0564 121.096 49.0564ZM121.068 66.3077C118.065 66.3077 116.494 63.8057 116.494 60.0393C116.494 56.273 118.065 53.7182 121.068 53.7182C124.072 53.7182 125.697 56.273 125.697 60.0393C125.67 63.8057 124.072 66.3077 121.068 66.3077Z" fill="#262626"/>
<path d="M142.473 46.852C143.947 45.4429 143.947 43.1583 142.473 41.7492C140.998 40.3401 138.608 40.3401 137.134 41.7492C135.66 43.1583 135.66 45.4429 137.134 46.852C138.608 48.2612 140.998 48.2612 142.473 46.852Z" fill="#262626"/>
<path d="M133.798 54.2714H136.691V70.3639H143.58V49.6096H133.798V54.2714Z" fill="#262626"/>
<path d="M160.526 49.0037C157.523 49.0037 155.429 50.2152 153.831 52.4539H153.693V49.6095H147.052V70.3374H153.969V58.8804C153.969 56.3256 155.484 54.5083 157.771 54.5083C160.031 54.5083 161.16 56.0095 161.16 58.1956V70.3374H168.076V56.8524C168.076 52.2432 165.266 49.0037 160.526 49.0037Z" fill="#262626"/>
<path d="M184.278 41.3921H171.355V70.3375H183.81C187.613 70.3375 190.671 69.4157 193.041 67.7037C196.43 65.2279 198.304 61.1456 198.304 56.036C198.304 47.1864 192.655 41.3921 184.278 41.3921ZM183.259 64.3325H178.85V47.3972H183.342C188.054 47.3972 190.726 50.7947 190.726 56.0623C190.699 61.3562 188.164 64.3325 183.259 64.3325Z" fill="#262626"/>
<path d="M218.777 51.743C216.903 50.1364 214.451 49.1619 211.365 49.1619C204.751 49.1619 200.232 53.9027 200.232 60.0921C200.232 66.3605 204.641 71.1014 211.806 71.1014C214.561 71.1014 216.765 70.4166 218.584 69.205C220.485 67.9408 221.753 66.1761 222.221 64.3062H215.498C214.892 65.5967 213.707 66.3605 211.888 66.3605C209.05 66.3605 207.452 64.6222 207.011 61.8304H222.607C222.635 57.59 221.367 54.008 218.777 51.743ZM207.038 57.8797C207.507 55.4039 208.857 53.8237 211.475 53.8237C213.707 53.8237 215.333 55.4039 215.581 57.8797H207.038Z" fill="#262626"/>
<path d="M236.219 57.3793C233.463 56.9052 231.011 56.6945 231.011 55.2459C231.011 53.9553 232.333 53.3495 234.014 53.3495C235.916 53.3495 237.238 53.929 237.486 55.7726H243.851C243.521 51.6903 240.214 49.1355 234.069 49.1355C228.944 49.1355 224.701 51.4006 224.701 55.7726C224.701 60.6451 228.724 61.5933 232.499 62.1991C235.392 62.6732 238.01 62.8839 238.01 64.7539C238.01 66.0971 236.687 66.8082 234.62 66.8082C232.333 66.8082 230.9 65.8074 230.625 63.7267H224.095C224.315 68.3095 228.283 71.1013 234.648 71.1013C240.324 71.1013 244.513 68.7573 244.513 64.2271C244.54 58.9332 240.049 57.985 236.219 57.3793Z" fill="#262626"/>
<path d="M260.77 57.4056L268.403 49.6095H260.44L253.992 56.6154V41.3921H247.186V70.3638H253.992V63.99L256.086 61.883L261.294 70.3638H269.285L260.77 57.4056Z" fill="#262626"/>
<path d="M48.5993 57.8798C49.7559 57.8798 50.6934 56.9836 50.6934 55.8781C50.6934 54.7726 49.7559 53.8765 48.5993 53.8765C47.4427 53.8765 46.5051 54.7726 46.5051 55.8781C46.5051 56.9836 47.4427 57.8798 48.5993 57.8798Z" fill="#F8BF1E"/>
<path d="M65.2978 57.8798C66.4543 57.8798 67.3919 56.9836 67.3919 55.8781C67.3919 54.7726 66.4543 53.8765 65.2978 53.8765C64.1412 53.8765 63.2036 54.7726 63.2036 55.8781C63.2036 56.9836 64.1412 57.8798 65.2978 57.8798Z" fill="#F8BF1E"/>
<path d="M65.2978 73.8669C66.4543 73.8669 67.3919 72.9707 67.3919 71.8652C67.3919 70.7597 66.4543 69.8635 65.2978 69.8635C64.1412 69.8635 63.2036 70.7597 63.2036 71.8652C63.2036 72.9707 64.1412 73.8669 65.2978 73.8669Z" fill="#F8BF1E"/>
<path d="M71.4422 39.5222C71.2217 36.5987 68.7694 34.2283 65.7108 34.0176C63.7544 33.8859 61.9909 34.597 60.7509 35.8085C59.8141 36.7304 58.5466 37.2835 57.1964 37.2835H56.7004C55.3227 37.2835 54.0276 36.7304 53.0632 35.7822C51.9334 34.676 50.3628 34.0176 48.6269 34.0176C46.8909 34.0176 45.3203 34.7023 44.1906 35.7822C43.2261 36.7304 41.9311 37.2835 40.5534 37.2835H40.0849C38.7348 37.2835 37.4397 36.783 36.5028 35.8612C36.3099 35.6768 36.117 35.4925 35.9242 35.3344C33.582 33.5171 30.1377 33.5698 27.8782 35.4925C25.1503 37.7839 25.0401 41.7873 27.5751 44.2103C27.6027 44.2366 27.6302 44.263 27.6578 44.2893C28.6497 45.1848 29.1733 46.4491 29.1733 47.7396V48.1874C29.1733 49.5043 28.5946 50.7421 27.6026 51.664C26.4454 52.7438 25.7565 54.2451 25.7565 55.9044C25.7565 57.5637 26.4729 59.0649 27.6026 60.1448C28.5946 61.0666 29.1733 62.3045 29.1733 63.6214V64.2272C29.1733 65.5177 28.5946 66.7293 27.6302 67.6248C26.4178 68.7573 25.6738 70.3639 25.7565 72.1285C25.8943 75.2364 28.5395 77.7385 31.7634 77.8439C33.6371 77.8966 35.318 77.1854 36.5028 76.0002C37.4397 75.0784 38.7072 74.499 40.0574 74.499H40.5809C41.9311 74.499 43.1986 75.0521 44.1355 76.0002C45.3754 77.2381 47.1665 77.9492 49.1229 77.8176C52.1814 77.6068 54.6613 75.2364 54.8818 72.2866C55.1298 68.7837 52.2641 65.8865 48.6545 65.8865C46.946 65.8865 45.3754 66.5449 44.2457 67.6248C43.2813 68.5466 41.9862 69.0997 40.636 69.0997H40.0574C38.7072 69.0997 37.3846 68.5993 36.4201 67.6511C36.3926 67.6248 36.3926 67.6248 36.365 67.5984C35.3731 66.6766 34.7944 65.4387 34.7944 64.1218V63.5951C34.7944 62.2782 35.3731 61.0403 36.365 60.1185C37.5223 59.0386 38.2112 57.5373 38.2112 55.878C38.2112 54.2188 37.4948 52.7175 36.365 51.6376C35.3731 50.7158 34.7944 49.4779 34.7944 48.161V47.687C34.7944 46.3701 35.3731 45.1321 36.3375 44.2103C36.365 44.184 36.365 44.184 36.3926 44.1577C36.4201 44.1313 36.4201 44.1313 36.4477 44.105C37.4121 43.1832 38.7072 42.6301 40.0849 42.6301H40.5809C41.9587 42.6301 43.2537 43.1832 44.2181 44.1313C45.3479 45.2375 46.9185 45.896 48.6545 45.896C50.3904 45.896 51.961 45.2112 53.0907 44.1313C54.0551 43.1832 55.3503 42.6301 56.7279 42.6301H57.1688C58.5466 42.6301 59.8416 43.1832 60.806 44.1313C61.9358 45.2375 63.5064 45.896 65.2424 45.896C68.8245 45.9223 71.6901 43.0251 71.4422 39.5222Z" fill="#F8BF1E"/>
</g>
<defs>
<clipPath id="clip0_2091_2784">
<rect width="243.535" height="44" fill="white" transform="translate(25.75 34.002)"/>
</clipPath>
</defs>
</svg>
