<svg width="295" height="113" viewBox="0 0 295 113" fill="none" xmlns="http://www.w3.org/2000/svg">
<rect x="0.25" y="0.00195312" width="294" height="113" rx="15" fill="white"/>
<path d="M84.19 65.7994H89.1625V46.292H95.665V41.5745H77.73V46.292H84.19V65.7994ZM95.665 65.7994H100.34V57.6395C100.34 54.792 101.785 53.092 104.037 53.092C104.802 53.092 105.44 53.2194 106.162 53.4744V48.7145C105.652 48.587 105.1 48.502 104.59 48.502C102.677 48.502 100.935 49.777 100.34 51.4345V48.7145H95.665V65.7994ZM115.13 66.1819C117.467 66.1819 119.252 64.9919 120.06 63.8869V65.7994H124.735V48.7569H120.06V50.6694C119.295 49.5644 117.51 48.3745 115.13 48.3745C110.582 48.3745 107.097 52.4544 107.097 57.2994C107.097 62.1019 110.582 66.1819 115.13 66.1819ZM116.107 61.9319C113.515 61.9319 111.815 59.9769 111.815 57.2994C111.815 54.6219 113.515 52.667 116.107 52.667C118.7 52.667 120.4 54.6219 120.4 57.2994C120.4 59.9769 118.7 61.9319 116.107 61.9319ZM135.827 66.1819C138.165 66.1819 139.95 64.9919 140.757 63.8869V65.7994H145.432V40.2145H140.757V50.6694C139.992 49.5644 138.207 48.3745 135.827 48.3745C131.28 48.3745 127.795 52.4544 127.795 57.2994C127.837 62.1019 131.28 66.1819 135.827 66.1819ZM136.847 61.9319C134.255 61.9319 132.555 59.9769 132.555 57.2994C132.555 54.6219 134.255 52.667 136.847 52.667C139.44 52.667 141.14 54.6219 141.14 57.2994C141.14 59.9769 139.44 61.9319 136.847 61.9319ZM151.935 46.1645C153.592 46.1645 154.952 44.847 154.952 43.1895C154.952 41.532 153.592 40.2145 151.935 40.2145C150.32 40.2145 148.96 41.532 148.96 43.1895C149.002 44.8045 150.32 46.122 151.935 46.1645ZM149.64 65.7994H154.315V48.927H149.64V65.7994ZM158.437 65.7994H163.112V57.4694C163.112 54.1969 164.727 52.6244 166.895 52.6244C168.85 52.6244 169.912 54.112 169.912 56.577V65.7994H174.587V55.8119C174.587 51.3919 172.122 48.3745 168 48.3745C165.79 48.3745 164.047 49.3095 163.112 50.712V48.7569H158.437V65.7994ZM186.487 61.252C184.15 61.252 182.152 59.4669 182.152 56.8744C182.152 54.2394 184.107 52.497 186.487 52.497C188.825 52.497 190.822 54.2394 190.822 56.8744C190.822 59.5094 188.867 61.252 186.487 61.252ZM185.935 73.1944C191.162 73.1944 195.115 70.517 195.115 64.397V48.672H190.44V50.5845C189.505 49.267 187.677 48.2895 185.51 48.2895C181.047 48.2895 177.477 52.1145 177.477 56.917C177.477 61.677 181.047 65.502 185.51 65.502C187.677 65.502 189.547 64.5244 190.44 63.2494V64.397C190.44 67.117 188.612 69.072 185.85 69.072C183.937 69.072 182.025 68.4345 180.537 66.947L177.987 70.4319C179.942 72.3444 182.96 73.1944 185.935 73.1944ZM205.017 65.7994H209.437L219.467 41.5745H214.027L207.27 58.4045L200.427 41.5745H195.072L205.017 65.7994ZM223.717 45.952C225.375 45.952 226.692 44.6345 226.735 42.977C226.735 41.3195 225.375 40.002 223.717 40.002C222.102 40.002 220.742 41.3195 220.742 42.977C220.742 44.6345 222.145 45.952 223.717 45.952ZM221.422 65.7994H226.097V48.7145H221.422V65.7994ZM238.167 66.1819C241.737 66.1819 244.457 64.6944 246.072 62.3569L242.587 59.7645C241.822 60.9545 240.335 61.9319 238.167 61.9319C235.915 61.9319 233.917 60.6569 233.62 58.3619H246.37C246.455 57.6394 246.455 57.172 246.455 56.747C246.455 51.1795 242.545 48.3745 238.04 48.3745C232.855 48.3745 229.072 52.2419 229.072 57.2569C229.157 62.6544 233.11 66.1819 238.167 66.1819ZM233.832 55.217C234.3 53.1345 236.212 52.242 237.955 52.242C239.697 52.242 241.397 53.177 241.822 55.217H233.832ZM264.007 65.7994H268.64L274.25 48.7145H269.235L266.047 59.6369L262.562 48.7145H258.992L255.55 59.6369L252.32 48.7145H247.347L253 65.7994H257.632L260.82 56.1095L264.007 65.7994Z" fill="black"/>
<path d="M38.12 65.7992H28.685V51.0092H19.25V41.5742H38.0775V65.7992H38.12ZM56.99 65.7992H46.2375L56.3525 41.5742H67.105L56.99 65.7992ZM46.195 41.5742C49.17 41.5742 51.5925 43.9967 51.5925 46.9717C51.5925 49.9467 49.17 52.3692 46.195 52.3692C43.22 52.3692 40.7975 49.9467 40.7975 46.9717C40.84 43.9967 43.22 41.5742 46.195 41.5742Z" fill="black"/>
</svg>
