<svg width="295" height="113" viewBox="0 0 295 113" fill="none" xmlns="http://www.w3.org/2000/svg">
<rect x="0.25" width="294" height="113" rx="15" fill="white"/>
<g clip-path="url(#clip0_2091_2779)">
<path d="M237.591 69.5715C237.591 66.6073 239.998 64.2024 242.961 64.2024C245.925 64.2024 248.328 66.6073 248.328 69.5715C248.328 72.5358 245.925 74.9393 242.961 74.9393C239.998 74.9393 237.591 72.5358 237.591 69.5715Z" fill="#86BC24"/>
<path d="M66.3568 55.3524C66.3568 51.9516 65.6998 49.4285 64.3856 47.7847C63.0695 46.1427 61.0764 45.3224 58.3962 45.3224H55.5456V66.1188H57.7268C60.7035 66.1188 62.8847 65.2361 64.2737 63.4651C65.661 61.6974 66.3568 58.9925 66.3568 55.3524ZM76.5236 54.998C76.5236 61.1938 74.8583 65.9681 71.5273 69.3191C68.1964 72.6717 63.514 74.3479 57.478 74.3479H45.75V37.222H58.297C64.1166 37.222 68.6097 38.7462 71.7758 41.7928C74.9407 44.841 76.5236 49.2407 76.5236 54.9984M109.011 74.3477H118.343V37.0661H109.011V74.3477ZM131.453 60.4414C131.453 62.8184 131.764 64.6314 132.384 65.8773C133.005 67.1251 134.046 67.748 135.51 67.748C136.958 67.748 137.981 67.1251 138.578 65.8773C139.175 64.6314 139.471 62.8184 139.471 60.4414C139.471 58.0768 139.17 56.2932 138.566 55.0894C137.96 53.882 136.927 53.2778 135.462 53.2778C134.029 53.2778 133.005 53.8792 132.384 55.0753C131.764 56.2731 131.453 58.0612 131.453 60.4414ZM148.97 60.4414C148.97 64.9701 147.783 68.5031 145.403 71.0354C143.025 73.5693 139.695 74.8371 135.415 74.8371C131.31 74.8371 128.043 73.5414 125.618 70.9499C123.19 68.3586 121.976 64.8567 121.976 60.4416C121.976 55.9267 123.165 52.4186 125.545 49.9174C127.925 47.416 131.262 46.1656 135.559 46.1656C138.215 46.1656 140.564 46.7451 142.599 47.9025C144.635 49.0596 146.208 50.7176 147.312 52.8771C148.419 55.0334 148.97 57.5565 148.97 60.4414ZM152.676 74.3477H162.01V46.655H152.676V74.3477ZM152.676 43.3051H162.01V37.0647H152.676V43.3051ZM180.92 67.2845C182.18 67.2845 183.681 66.9643 185.432 66.329V73.2969C184.173 73.8499 182.977 74.2459 181.84 74.4806C180.703 74.7184 179.368 74.8364 177.841 74.8364C174.707 74.8364 172.449 74.0488 171.061 72.4764C169.68 70.9044 168.987 68.4901 168.987 65.2322V53.8161H165.718V46.6575H168.987V39.5853L178.393 37.9495V46.6572H184.348V53.8163H178.393V64.5951C178.393 66.388 179.236 67.2845 180.92 67.2845ZM202.523 67.2845C203.783 67.2845 205.283 66.9643 207.034 66.329V73.2969C205.777 73.8499 204.58 74.2459 203.442 74.4806C202.303 74.7184 200.974 74.8364 199.443 74.8364C196.31 74.8364 194.051 74.0488 192.667 72.4764C191.282 70.9044 190.59 68.4901 190.59 65.2322V53.8161H187.319V46.6575H190.59V39.4783L199.993 37.9495V46.6572H205.951V53.8163H199.993V64.5951C199.993 66.388 200.837 67.2845 202.523 67.2845ZM218.811 57.0678C218.939 55.5516 219.372 54.4406 220.112 53.7308C220.855 53.0223 221.771 52.6681 222.868 52.6681C224.064 52.6681 225.015 53.0658 225.72 53.8673C226.43 54.6643 226.8 55.7318 226.83 57.0678H218.811ZM231.974 49.4303C229.755 47.2555 226.607 46.1663 222.536 46.1663C218.255 46.1663 214.962 47.4169 212.653 49.9181C210.346 52.4195 209.192 56.0081 209.192 60.6847C209.192 65.2132 210.439 68.7057 212.928 71.1573C215.418 73.6088 218.916 74.8362 223.419 74.8362C225.582 74.8362 227.443 74.6887 229.003 74.395C230.553 74.1046 232.054 73.5793 233.51 72.8212L232.076 66.5803C231.018 67.0125 230.011 67.3448 229.061 67.5637C227.687 67.8825 226.18 68.0423 224.539 68.0423C222.741 68.0423 221.321 67.6028 220.28 66.7235C219.239 65.8426 218.684 64.6276 218.621 63.0802H235.303V58.828C235.303 54.7375 234.194 51.6038 231.974 49.4303ZM88.9103 57.0678C89.0377 55.5516 89.4713 54.4406 90.2106 53.7308C90.9516 53.0223 91.8697 52.6681 92.9684 52.6681C94.1614 52.6681 95.1123 53.0658 95.8192 53.8673C96.529 54.6643 96.8972 55.7318 96.9299 57.0678H88.9103ZM102.074 49.4303C99.8537 47.2555 96.7076 46.1663 92.6343 46.1663C88.3525 46.1663 85.0606 47.4169 82.7533 49.9181C80.4463 52.4195 79.2905 56.0081 79.2905 60.6847C79.2905 65.2132 80.5364 68.7057 83.0284 71.1573C85.5172 73.6088 89.0143 74.8362 93.5184 74.8362C95.6808 74.8362 97.5421 74.6887 99.1018 74.395C100.652 74.1046 102.153 73.5793 103.61 72.8212L102.175 66.5803C101.117 67.0125 100.11 67.3448 99.1608 67.5637C97.7845 67.8825 96.2791 68.0423 94.6382 68.0423C92.8408 68.0423 91.4195 67.6028 90.3785 66.7235C89.3359 65.8426 88.7829 64.6276 88.7193 63.0802H105.402V58.828C105.402 54.7375 104.293 51.6038 102.074 49.4303Z" fill="#0F0B0B"/>
</g>
<defs>
<clipPath id="clip0_2091_2779">
<rect width="202.578" height="44" fill="white" transform="translate(45.75 34.002)"/>
</clipPath>
</defs>
</svg>
