<svg width="295" height="113" viewBox="0 0 295 113" fill="none" xmlns="http://www.w3.org/2000/svg">
<rect x="0.75" y="0.00195312" width="294" height="113" rx="15" fill="white"/>
<g clip-path="url(#clip0_2091_2825)">
<path d="M88.6862 36.002H71.8099V58.7759H94.5839V41.8997C94.5839 38.6319 91.9539 36.002 88.6862 36.002ZM66.55 36.002H63.6477C60.38 36.002 57.75 38.6319 57.75 41.8997V44.802H66.55V36.002ZM57.75 50.0619H66.55V58.8619H57.75V50.0619ZM85.877 72.8358H88.7793C92.0471 72.8358 94.677 70.2059 94.677 66.9381V64.129H85.877V72.8358ZM71.8099 64.129H80.6099V72.929H71.8099V64.129ZM57.75 64.129V67.0313C57.75 70.299 60.38 72.929 63.6477 72.929H66.55V64.129H57.75ZM117.086 38.3596H113.639V70.5642H131.876V67.4827H117.086V38.3596ZM142.941 46.8873C136.226 46.8873 131.511 51.8749 131.511 59.041V59.8651C131.604 62.9466 132.966 65.856 135.23 68.0274C137.409 70.0267 140.218 71.202 143.213 71.202H143.665C146.839 71.202 149.835 70.0195 152.192 68.0274L152.286 67.9342L150.745 65.3974L150.566 65.4906C148.659 67.2176 146.302 68.2137 143.765 68.2137C139.594 68.2137 135.33 65.4906 135.058 59.4137H152.479V59.2345C152.479 59.2345 152.572 58.1453 152.572 57.6007C152.551 51.0651 148.745 46.8873 142.941 46.8873ZM135.137 56.5042C135.861 52.4195 138.856 49.7896 142.755 49.7896C145.657 49.7896 148.831 51.5166 149.104 56.5042H135.137ZM172.515 49.6104V50.7928C171.061 48.342 168.345 46.8013 165.529 46.8013H165.256C159.086 46.8013 154.822 51.7029 154.822 58.8691C154.822 66.1283 158.907 71.0228 164.984 71.0228C169.792 71.0228 171.971 68.1205 172.695 66.8521V70.3922H175.962V38.3596H172.609V49.6104H172.515ZM165.435 68.0274C161.172 68.0274 158.362 64.4013 158.362 58.955C158.362 53.6951 161.358 49.9759 165.529 49.9759C169.069 49.9759 172.601 52.785 172.601 58.955C172.601 65.6697 168.882 68.0274 165.435 68.0274ZM195.827 50.0619V50.241C195.189 49.1518 193.197 46.7941 188.388 46.7941C182.312 46.7941 178.32 51.4235 178.32 58.4964C178.32 65.5694 182.491 70.3778 188.661 70.3778C192.015 70.3778 194.286 69.1954 195.827 66.7518V69.9264C195.827 74.3694 193.018 76.9134 188.023 76.9134C185.938 76.9134 183.759 76.3687 181.853 75.3726L181.674 75.2795L180.405 78.0886L180.585 78.1818C182.942 79.3642 185.572 79.9948 188.116 79.9948C193.469 79.9948 199.181 77.2717 199.181 69.7401V47.4319H195.827V50.0619ZM189.112 67.3896C184.669 67.3896 181.767 63.9427 181.767 58.5896C181.767 53.1433 184.304 50.0619 188.661 50.0619C193.469 50.0619 195.734 52.871 195.734 58.5896C195.827 64.215 193.469 67.3896 189.112 67.3896ZM212.882 46.8873C206.168 46.8873 201.545 51.8749 201.545 58.955V59.772C201.639 62.8534 203 65.7629 205.265 67.9342C207.443 69.9336 210.252 71.1088 213.248 71.1088H213.699C216.874 71.1088 219.869 69.9264 222.227 67.9342L222.32 67.841L220.686 65.3042L220.507 65.3974C218.601 67.1244 216.243 68.1205 213.706 68.1205C209.536 68.1205 205.272 65.3974 205 59.3205H222.499V59.1414C222.499 59.1414 222.592 58.0521 222.592 57.5075C222.592 51.0651 218.78 46.8873 212.882 46.8873ZM205.172 56.5042C205.895 52.4195 208.891 49.7896 212.789 49.7896C215.691 49.7896 218.866 51.5166 219.138 56.5042H205.172ZM236.745 47.3388C236.294 47.2456 235.929 47.2456 235.477 47.1596C232.302 47.1596 229.672 49.159 228.311 52.5127V47.3388H224.957L225.05 70.2919V70.471H228.497V60.7681C228.497 59.3134 228.676 57.7726 229.135 56.4111C230.224 52.871 232.675 50.6065 235.577 50.6065C235.943 50.6065 236.301 50.6065 236.667 50.6997H236.846V47.3459L236.745 47.3388Z" fill="#1D2028"/>
</g>
<defs>
<clipPath id="clip0_2091_2825">
<rect width="179.081" height="44" fill="white" transform="translate(57.75 36.002)"/>
</clipPath>
</defs>
</svg>
