<svg width="295" height="113" viewBox="0 0 295 113" fill="none" xmlns="http://www.w3.org/2000/svg">
<rect x="0.25" width="294" height="113" rx="15" fill="white"/>
<path fill-rule="evenodd" clip-rule="evenodd" d="M87.5691 29.1266C82.5757 29.7403 77.0801 32.3068 72.3936 36.268C71.4451 37.0491 69.4645 38.974 69.4645 39.0856C69.4645 39.1414 70.4129 40.1456 71.5846 41.3173L73.7047 43.4653L72.812 44.4696C69.5203 48.1798 67.2886 51.9457 65.9495 55.9349C65.1127 58.4456 64.75 60.5099 64.75 62.8253C64.75 64.9175 65.029 66.6192 65.6706 68.2651L65.9216 68.9346L72.1425 75.1554C77.3312 80.3442 78.5029 81.46 79.1445 81.8784C80.4835 82.7711 82.0457 83.3848 83.7753 83.7475C84.919 83.9986 87.5691 84.0823 88.8245 83.9149C93.79 83.3012 98.9229 80.9579 103.414 77.2198C104.586 76.2434 106.566 74.3744 106.566 74.2628C106.566 74.207 105.59 73.2027 104.418 72.0032L102.27 69.8273L102.94 69.1299C104.586 67.4003 106.594 64.6386 107.766 62.4626C109.44 59.422 110.528 56.1302 110.89 53.1174C111.03 51.8063 110.946 49.0166 110.723 47.9566C110.333 46.1712 109.719 44.7206 108.798 43.3258C108.324 42.6005 107.375 41.6241 102.131 36.3517L95.9938 30.2146L95.3522 29.9635C94.4874 29.6008 92.7021 29.1824 91.6141 29.0708C90.5261 28.9592 88.8245 28.9871 87.5691 29.1266ZM92.8415 30.7725C93.2879 30.8841 94.0132 31.0514 94.4037 31.1909C95.129 31.442 95.1569 31.442 96.3007 32.5857C97.3049 33.59 97.4444 33.7295 97.1934 33.7016C95.8543 33.4505 93.7063 33.3947 92.0325 33.6179C86.6765 34.2874 81.153 36.9933 76.0759 41.4567C75.5738 41.9031 75.1274 42.2936 75.0437 42.3494C74.96 42.4052 74.5137 42.0426 73.2026 40.7314L71.473 39.0019L72.5889 38.0255C77.2475 33.9527 82.3804 31.3862 87.4018 30.6609C88.7408 30.4656 91.7257 30.5493 92.8415 30.7725ZM100.15 39.6435C102.605 40.0061 104.753 41.0662 106.343 42.6563C107.906 44.2185 108.91 46.227 109.384 48.7377C109.579 49.8535 109.579 52.3642 109.384 53.6753C108.742 57.7203 106.873 61.8768 103.972 65.6707C103.303 66.5634 101.713 68.4324 101.461 68.6277C101.322 68.7393 101.155 68.5998 99.704 67.1492C98.8113 66.2565 98.086 65.5033 98.086 65.4754C98.086 65.4475 98.3371 65.1407 98.644 64.8059C103.693 59.2267 106.064 52.2526 104.391 47.9287C103.721 46.2549 102.326 44.9996 100.513 44.4417C99.5924 44.1627 97.9744 44.0232 96.7749 44.1627C94.9338 44.3301 92.6742 45.0554 90.4983 46.1154C88.3223 47.1755 86.3417 48.5145 84.4169 50.2441L83.5521 50.9973L81.9062 49.3514L80.2603 47.7055L80.9577 47.0639C85.2259 43.0747 90.8888 40.2293 95.7427 39.5877C96.7191 39.504 99.2298 39.504 100.15 39.6435ZM77.0801 49.2677C76.4664 49.9651 75.6853 50.9415 75.2948 51.4436C70.664 57.6087 68.5439 64.3038 69.4087 70.0783L69.4645 70.441L68.3207 69.3251C67.2328 68.2651 67.177 68.1814 66.9538 67.5119C64.7779 61.2631 67.5117 52.6432 73.9558 45.418L74.709 44.5811L76.4385 46.3107L78.1681 48.0403L77.0801 49.2677ZM98.8671 45.697L99.0903 45.7528L99.0345 46.9244C98.9787 48.3192 98.7834 49.463 98.5045 50.4394C97.6118 53.3685 95.9659 56.2976 93.5668 59.0593L92.6463 60.1194L90.8888 58.3619L89.1313 56.6044L89.9403 55.7117C91.6699 53.8148 93.26 51.611 94.2364 49.7419C94.7664 48.7377 95.4638 47.036 95.6591 46.2549C95.7706 45.7807 95.7706 45.7807 96.1891 45.7249C96.4123 45.697 96.6633 45.6691 96.747 45.6412C96.9702 45.6412 98.6719 45.6412 98.8671 45.697ZM93.8737 46.9244C93.4832 48.0124 92.6184 49.6861 91.7815 50.9415C90.8609 52.3363 90.2193 53.1732 88.9361 54.6238L88.0434 55.6559L86.2859 53.8985L84.5285 52.141L85.1143 51.611C86.9275 49.993 89.0476 48.5424 91.0004 47.5381C92.0604 47.0081 93.79 46.3107 94.0411 46.2828C94.069 46.2828 94.0132 46.5618 93.8737 46.9244ZM120.598 47.9845C120.515 48.0682 120.487 50.3836 120.487 58.864C120.487 69.1856 120.487 69.632 120.654 69.7715C120.794 69.9109 121.24 69.9109 125.006 69.9109C127.293 69.9109 129.776 69.8552 130.501 69.8273C133.431 69.632 135.69 68.6835 137.42 66.9539C138.787 65.587 139.651 63.6901 140.098 61.1794C140.293 59.952 140.293 57.3855 140.098 56.186C139.373 52.141 137.057 49.5188 133.347 48.4587C131.534 47.9566 131.394 47.9287 125.871 47.9008C121.77 47.9008 120.682 47.9008 120.598 47.9845ZM222.169 48.3471C222.085 48.4308 222.057 49.1282 222.057 50.9136V53.3685H220.997C220.3 53.3685 219.909 53.3964 219.825 53.48C219.686 53.6195 219.686 56.5207 219.825 56.6881C219.909 56.7718 220.3 56.7997 220.997 56.7997H222.057L222.085 61.7652C222.113 66.6192 222.113 66.7587 222.308 67.3166C222.838 68.8509 223.926 69.6878 225.684 69.9109C226.883 70.0504 228.585 69.9946 229.756 69.7715L230.007 69.7157L229.98 67.6792L229.952 65.6428L228.836 65.587C227.636 65.5312 227.441 65.4754 227.302 65.2244C227.246 65.1128 227.218 63.439 227.218 60.9562V56.8555L228.641 56.8276L230.063 56.7997V55.098V53.3964L228.641 53.3685L227.218 53.3406V50.9415C227.218 49.463 227.19 48.4866 227.134 48.375C227.05 48.2077 226.911 48.2076 224.679 48.2076C222.922 48.2634 222.252 48.2913 222.169 48.3471ZM130.864 53.0616C132.566 53.5079 133.682 54.7075 134.128 56.4649C134.463 57.804 134.463 60.0357 134.1 61.4305C133.737 62.7974 132.901 63.8854 131.785 64.4154C130.808 64.8896 130.223 64.9733 128.214 65.0291L126.401 65.0849V58.9477V52.8105L128.353 52.8663C129.776 52.8942 130.474 52.95 130.864 53.0616ZM147.909 53.1732C145.119 53.6753 142.971 55.5165 142.023 58.1945C140.767 61.7094 141.381 65.7265 143.501 67.9861C144.617 69.1577 145.677 69.7715 147.295 70.1899C150.392 70.971 153.711 70.162 155.915 68.0977C156.445 67.6235 157.812 65.8939 157.812 65.7265C157.812 65.5312 157.421 65.2802 155.831 64.4712C154.855 63.969 154.046 63.5506 154.018 63.5506C153.99 63.5506 153.823 63.8017 153.655 64.1085C153.265 64.8617 152.456 65.6986 151.87 66.0055C150.113 66.8703 148.048 66.3681 147.156 64.8617C146.904 64.4154 146.653 63.6343 146.653 63.2158V62.909H152.233C156.445 62.909 157.812 62.8811 157.896 62.7974C158.035 62.6579 158.035 61.5421 157.868 60.4262C157.421 57.4413 156.166 55.2933 154.158 54.0938C153.488 53.7032 152.205 53.2569 151.368 53.1174C150.531 52.9779 148.746 53.0058 147.909 53.1732ZM166.237 53.0616C165.456 53.1732 164.814 53.3127 164.312 53.48C161.494 54.3727 159.625 56.6881 159.039 59.9799C158.816 61.2352 158.9 63.2437 159.207 64.4433C159.625 66.0613 160.239 67.1213 161.355 68.1814C162.331 69.102 163.475 69.7436 165.009 70.162C165.456 70.3015 165.902 70.3294 167.046 70.3294C168.357 70.3294 168.552 70.3015 169.277 70.0783C170.728 69.632 171.844 68.9625 172.848 67.9024C173.518 67.205 174.271 66.1729 174.271 65.9497C174.271 65.866 174.131 65.7265 173.992 65.6149C173.406 65.2523 170.7 63.9132 170.561 63.9132C170.477 63.9132 170.337 64.1085 170.198 64.3875C169.863 65.1128 169.417 65.587 168.719 65.9218C168.189 66.1728 168.022 66.2286 167.436 66.2007C166.655 66.2007 166.153 66.0055 165.511 65.4475C163.838 63.969 163.726 59.8683 165.316 57.9992C166.32 56.8276 168.189 56.8276 169.389 57.9713C169.584 58.1666 169.863 58.5293 170.003 58.7803C170.142 59.0314 170.309 59.2546 170.393 59.2546C170.588 59.3104 174.02 57.3297 174.075 57.1345C174.103 56.9671 173.741 56.4092 173.211 55.7396C172.346 54.6796 170.644 53.6474 169.166 53.3127C168.413 53.1174 166.795 53.0058 166.237 53.0616ZM210.982 53.2569C210.062 53.4243 209.225 53.759 208.555 54.2611L208.025 54.6517L207.997 54.0938L207.969 53.5358L205.821 53.5079C203.924 53.48 203.645 53.5079 203.506 53.6474C203.339 53.7869 203.339 54.2053 203.339 64.527C203.339 72.7564 203.367 75.267 203.45 75.3507C203.618 75.5181 208.304 75.5181 208.444 75.3507C208.527 75.267 208.555 74.4301 208.555 72.1705V69.102L209.42 69.5483C210.592 70.1341 211.317 70.2736 212.684 70.2178C214.274 70.1341 215.222 69.8273 216.255 69.0462C217.705 67.9582 218.654 66.2844 219.184 63.969C219.463 62.7416 219.463 60.5936 219.184 59.2825C218.821 57.5529 218.235 56.3813 217.175 55.2654C215.613 53.5358 213.325 52.8384 210.982 53.2569ZM85.1701 54.9028C86.6765 56.4092 86.7602 56.5207 86.6486 56.6881C86.5649 56.7718 86.2022 57.1902 85.8117 57.6366C84.2495 59.4219 82.7989 61.5979 81.8225 63.6064C81.1251 65.0291 80.7067 66.2007 80.2882 67.7908C79.7582 69.883 79.7582 72.1984 80.344 73.8164C81.432 76.885 84.3053 78.3356 88.3223 77.8614C92.1999 77.3871 96.6633 75.1554 100.485 71.78L101.294 71.0547L102.94 72.7006L104.586 74.3465L103.888 74.9881C100.318 78.3077 95.5475 81.0137 91.4188 82.0179C89.7451 82.4364 88.5734 82.5759 86.9833 82.5759C84.8632 82.5759 83.301 82.2969 81.6551 81.5716C79.535 80.651 77.5823 78.8378 76.578 76.8292C75.3227 74.3465 74.96 71.2779 75.518 67.9582C76.2991 63.3274 78.8934 58.3619 82.7152 54.0938C83.1057 53.6474 83.4684 53.2848 83.4963 53.2848C83.5242 53.2848 84.2774 54.0101 85.1701 54.9028ZM184.425 53.3964C183.337 53.5637 181.97 54.0659 181.077 54.6517L180.798 54.847V54.2611C180.798 53.9264 180.743 53.6474 180.687 53.5637C180.603 53.48 179.962 53.4521 178.316 53.4521C176.251 53.4521 176.028 53.4521 175.917 53.6195C175.777 53.759 175.777 54.4564 175.777 61.7094C175.777 69.2693 175.777 69.632 175.945 69.7715C176.084 69.9109 176.391 69.9109 178.399 69.9109C180.185 69.9109 180.715 69.8831 180.798 69.7994C180.854 69.7157 180.91 68.0698 180.91 64.6943C180.938 60.0078 180.938 59.673 181.105 59.3662C181.44 58.6966 182.026 58.4177 183.728 58.1387C184.369 58.0271 185.011 57.9155 185.15 57.8876L185.401 57.8319V55.6559C185.401 53.48 185.373 53.229 185.094 53.2848C184.983 53.3127 184.704 53.3406 184.425 53.3964ZM186.712 53.5916C186.657 53.6753 186.629 53.8148 186.657 53.9543C186.685 54.0659 187.438 56.5207 188.33 59.3662C191.901 70.8594 191.706 70.1899 191.455 70.6362C191.232 71.0826 190.841 71.1663 189.446 71.1663C188.582 71.1663 188.135 71.1942 188.079 71.2779C187.996 71.3615 187.968 71.9195 187.968 73.2864C187.968 74.6533 187.996 75.2112 188.079 75.2949C188.219 75.4344 191.762 75.4344 192.682 75.3228C194.217 75.0997 195.472 74.0117 196.197 72.2821C196.365 71.9195 197.787 67.5956 199.377 62.6858C201.804 55.2654 202.279 53.7311 202.167 53.6195C202.083 53.5079 201.665 53.48 199.461 53.48H196.867L196.783 53.8706C196.727 54.0938 196.197 56.4092 195.583 59.0593C194.97 61.7094 194.468 63.9132 194.412 63.9411C194.384 63.969 193.798 61.6258 193.157 58.7524L191.957 53.48H189.363C187.215 53.48 186.796 53.48 186.712 53.5916ZM151.089 57.0787C151.926 57.4692 152.484 58.2224 152.651 59.143L152.707 59.4777H149.722H146.737L146.793 59.1988C146.905 58.6966 147.379 57.8877 147.769 57.5529C148.439 56.9671 149.025 56.7718 149.945 56.8276C150.392 56.8555 150.726 56.9392 151.089 57.0787ZM212.656 57.2181C213.437 57.6366 214.023 58.5014 214.302 59.673C214.497 60.5378 214.497 62.6021 214.274 63.4669C214.079 64.2201 213.688 65.0012 213.27 65.5312C212.6 66.3402 211.289 66.5634 210.229 66.0334C209.002 65.4196 208.416 64.0527 208.416 61.7652C208.416 59.6451 208.974 58.1387 210.006 57.3855C210.815 56.8276 211.791 56.7718 212.656 57.2181ZM90.6377 61.7373C88.3502 63.8854 85.4211 65.8102 82.9942 66.7866C82.492 66.9818 82.0457 67.1492 82.0178 67.1492C81.9899 67.1492 82.1015 66.8424 82.241 66.4518C83.301 63.5227 85.1422 60.5378 87.346 58.1666L87.876 57.6087L89.6335 59.3383L91.3909 61.0678L90.6377 61.7373ZM94.1527 63.9132L95.8543 65.6149L95.3243 66.1171C92.5347 68.7393 88.2387 71.1105 85.198 71.7521C84.4448 71.9195 82.771 72.0869 81.962 72.0869H81.432V70.8036C81.432 70.1062 81.4599 69.353 81.4878 69.1856L81.5436 68.8509L82.6315 68.4882C85.3932 67.5956 88.9082 65.3917 91.5025 62.9369C91.921 62.5463 92.3115 62.2116 92.3673 62.2116C92.4231 62.2116 93.2321 62.9648 94.1527 63.9132Z" fill="#1D1D1B"/>
</svg>
