<svg width="149" height="38" viewBox="0 0 149 38" fill="none" xmlns="http://www.w3.org/2000/svg">
<path d="M20.8807 19.9539C20.8458 16.1639 24.0593 14.32 24.2063 14.2342C22.3863 11.6436 19.5655 11.2896 18.5742 11.2614C16.205 11.018 13.9069 12.6455 12.7 12.6455C11.469 12.6455 9.61054 11.2849 7.60752 11.3249C5.02996 11.3637 2.61862 12.8207 1.29612 15.0832C-1.4332 19.6964 0.602348 26.4757 3.21724 30.2046C4.52529 32.0308 6.05376 34.0699 8.05438 33.9981C10.0116 33.9194 10.7427 32.7799 13.1047 32.7799C15.445 32.7799 16.1315 33.9981 18.1719 33.9523C20.2725 33.9194 21.595 32.1178 22.8573 30.2751C24.3689 28.182 24.9759 26.1205 25 26.0147C24.9506 25.9983 20.9205 24.4966 20.8807 19.9539Z" fill="white"/>
<path d="M17.0264 8.80841C18.0791 7.52311 18.7994 5.77449 18.5995 4C17.0758 4.06585 15.1704 5.02894 14.0731 6.28602C13.1023 7.39375 12.2351 9.2094 12.4591 10.9169C14.1707 11.0415 15.928 10.0737 17.0264 8.80841Z" fill="white"/>
<path d="M49.6431 4.52273C49.6431 6.06435 49.1689 7.22482 48.2218 8.00414C47.3446 8.72322 46.0979 9.08341 44.4832 9.08341C43.6826 9.08341 42.9974 9.04935 42.4238 8.98124V0.558013C43.1721 0.440133 43.9781 0.379883 44.8486 0.379883C46.3868 0.379883 47.5461 0.706019 48.3279 1.35829C49.2038 2.0957 49.6431 3.15008 49.6431 4.52273ZM48.1587 4.56072C48.1587 3.56135 47.8873 2.79513 47.3446 2.26073C46.8019 1.72765 46.0093 1.46046 44.9655 1.46046C44.5222 1.46046 44.1447 1.48927 43.8317 1.54952V7.95306C44.005 7.97926 44.322 7.99105 44.7828 7.99105C45.8602 7.99105 46.6917 7.69896 47.2774 7.1148C47.8631 6.53064 48.1587 5.67927 48.1587 4.56072Z" fill="white"/>
<path d="M57.5148 5.86885C57.5148 6.81845 57.2368 7.59646 56.6806 8.20682C56.0976 8.83421 55.3251 9.14724 54.3606 9.14724C53.431 9.14724 52.6908 8.8473 52.1387 8.2448C51.5879 7.64361 51.3125 6.88525 51.3125 5.97102C51.3125 5.01487 51.5959 4.23031 52.1655 3.62126C52.7351 3.01221 53.5009 2.70703 54.4654 2.70703C55.395 2.70703 56.1419 3.00697 56.7075 3.60816C57.2448 4.19233 57.5148 4.94676 57.5148 5.86885ZM56.0546 5.91339C56.0546 5.34363 55.9283 4.85508 55.6771 4.44774C55.3816 3.95526 54.9611 3.70902 54.4143 3.70902C53.8488 3.70902 53.4189 3.95526 53.1234 4.44774C52.8708 4.85508 52.7459 5.35149 52.7459 5.93827C52.7459 6.50803 52.8722 6.99658 53.1234 7.40392C53.4283 7.8964 53.8528 8.14264 54.4009 8.14264C54.9383 8.14264 55.3601 7.89247 55.6637 7.39082C55.9243 6.97562 56.0546 6.48314 56.0546 5.91339Z" fill="white"/>
<path d="M68.0678 2.83301L66.0863 9.00734H64.7967L63.9759 6.32621C63.7677 5.65691 63.5984 4.99153 63.4667 4.3314H63.4412C63.319 5.00987 63.1497 5.67393 62.9321 6.32621L62.0602 9.00734H60.7558L58.8926 2.83301H60.3394L61.0554 5.76824C61.2287 6.46242 61.3711 7.12386 61.4853 7.74994H61.5108C61.6156 7.23389 61.7889 6.57638 62.0334 5.78134L62.9321 2.83432H64.0793L64.9404 5.71847C65.1486 6.42182 65.3179 7.09898 65.4482 7.75125H65.4872C65.5826 7.11601 65.7263 6.43885 65.9171 5.71847L66.6855 2.83432H68.0678V2.83301Z" fill="white"/>
<path d="M75.3652 9.00712H73.9574V5.4707C73.9574 4.38096 73.5329 3.83609 72.6812 3.83609C72.2634 3.83609 71.9262 3.98541 71.6643 4.28535C71.405 4.58529 71.2733 4.93893 71.2733 5.34365V9.00581H69.8655V4.59708C69.8655 4.05482 69.848 3.46673 69.8145 2.83017H71.0517L71.1175 3.79549H71.1565C71.3204 3.49555 71.5649 3.248 71.8859 3.05022C72.2674 2.8197 72.6946 2.70312 73.1621 2.70312C73.7532 2.70312 74.2449 2.88911 74.6358 3.2624C75.1221 3.71952 75.3652 4.40192 75.3652 5.30829V9.00712V9.00712Z" fill="white"/>
<path d="M79.2483 9.00739H77.8418V0H79.2483V9.00739Z" fill="white"/>
<path d="M87.5363 5.86885C87.5363 6.81845 87.2582 7.59646 86.7021 8.20682C86.1191 8.83421 85.3453 9.14724 84.3821 9.14724C83.4511 9.14724 82.7109 8.8473 82.1602 8.2448C81.6094 7.64361 81.334 6.88525 81.334 5.97102C81.334 5.01487 81.6174 4.23031 82.187 3.62126C82.7566 3.01221 83.5223 2.70703 84.4855 2.70703C85.4165 2.70703 86.1621 3.00697 86.729 3.60816C87.2663 4.19233 87.5363 4.94676 87.5363 5.86885ZM86.0747 5.91339C86.0747 5.34363 85.9485 4.85508 85.6973 4.44774C85.4031 3.95526 84.9812 3.70902 84.4358 3.70902C83.8689 3.70902 83.439 3.95526 83.1448 4.44774C82.8923 4.85508 82.7674 5.35149 82.7674 5.93827C82.7674 6.50803 82.8936 6.99658 83.1448 7.40392C83.4498 7.8964 83.8743 8.14264 84.4224 8.14264C84.9597 8.14264 85.3802 7.89247 85.6838 7.39082C85.9458 6.97562 86.0747 6.48314 86.0747 5.91339Z" fill="white"/>
<path d="M94.3512 9.0071H93.0871L92.9823 8.29588H92.9433C92.5108 8.86302 91.8942 9.14724 91.0935 9.14724C90.4957 9.14724 90.0121 8.95995 89.6481 8.58797C89.3176 8.25004 89.1523 7.8296 89.1523 7.33057C89.1523 6.57614 89.4748 6.00114 90.1236 5.60297C90.7711 5.20479 91.6819 5.00963 92.8547 5.0188V4.90354C92.8547 4.09016 92.4167 3.68413 91.5395 3.68413C90.9148 3.68413 90.3641 3.83738 89.8885 4.14125L89.6024 3.24011C90.1908 2.88516 90.9175 2.70703 91.7746 2.70703C93.4296 2.70703 94.2598 3.55839 94.2598 5.26111V7.5349C94.2598 8.15181 94.2907 8.64298 94.3512 9.0071ZM92.8896 6.88525V5.93303C91.3367 5.90684 90.5602 6.32204 90.5602 7.17733C90.5602 7.49954 90.6489 7.74053 90.8302 7.90164C91.0116 8.06274 91.2426 8.14264 91.518 8.14264C91.827 8.14264 92.1158 8.04703 92.3791 7.85711C92.6438 7.66588 92.8063 7.42357 92.8668 7.12625C92.8815 7.05945 92.8896 6.97824 92.8896 6.88525Z" fill="white"/>
<path d="M102.35 9.00739H101.101L101.035 8.01589H100.996C100.597 8.77032 99.917 9.14754 98.9619 9.14754C98.1988 9.14754 97.5634 8.85546 97.0597 8.27129C96.5559 7.68713 96.3047 6.92876 96.3047 5.99751C96.3047 4.99814 96.5774 4.18869 97.1255 3.57047C97.6561 2.99417 98.3063 2.70602 99.0801 2.70602C99.9304 2.70602 100.526 2.985 100.864 3.54428H100.891V0H102.3V7.34397C102.3 7.94516 102.316 8.4992 102.35 9.00739ZM100.891 6.40354V5.37405C100.891 5.19592 100.878 5.05184 100.852 4.94182C100.773 4.61175 100.602 4.33408 100.343 4.11011C100.081 3.88613 99.7652 3.77349 99.4011 3.77349C98.8759 3.77349 98.4648 3.97651 98.1626 4.38385C97.863 4.79119 97.7112 5.31118 97.7112 5.94642C97.7112 6.55678 97.8549 7.05188 98.1438 7.43303C98.4487 7.83907 98.8598 8.04208 99.3743 8.04208C99.8364 8.04208 100.206 7.87312 100.487 7.53388C100.758 7.22085 100.891 6.84363 100.891 6.40354Z" fill="white"/>
<path d="M114.392 5.86885C114.392 6.81845 114.114 7.59646 113.558 8.20682C112.975 8.83421 112.203 9.14724 111.238 9.14724C110.309 9.14724 109.569 8.8473 109.016 8.2448C108.465 7.64361 108.189 6.88525 108.189 5.97102C108.189 5.01487 108.473 4.23031 109.042 3.62126C109.612 3.01221 110.378 2.70703 111.344 2.70703C112.272 2.70703 113.02 3.00697 113.584 3.60816C114.122 4.19233 114.392 4.94676 114.392 5.86885ZM112.933 5.91339C112.933 5.34363 112.807 4.85508 112.555 4.44774C112.259 3.95526 111.839 3.70902 111.291 3.70902C110.727 3.70902 110.297 3.95526 110 4.44774C109.748 4.85508 109.623 5.35149 109.623 5.93827C109.623 6.50803 109.749 6.99658 110 7.40392C110.305 7.8964 110.73 8.14264 111.278 8.14264C111.815 8.14264 112.238 7.89247 112.542 7.39082C112.801 6.97562 112.933 6.48314 112.933 5.91339Z" fill="white"/>
<path d="M121.962 9.00712H120.555V5.4707C120.555 4.38096 120.131 3.83609 119.278 3.83609C118.86 3.83609 118.523 3.98541 118.262 4.28535C118.001 4.58529 117.871 4.93893 117.871 5.34365V9.00581H116.462V4.59708C116.462 4.05482 116.446 3.46673 116.412 2.83017H117.648L117.714 3.79549H117.753C117.918 3.49555 118.163 3.248 118.482 3.05022C118.865 2.8197 119.291 2.70312 119.76 2.70312C120.35 2.70312 120.841 2.88911 121.232 3.2624C121.72 3.71952 121.962 4.40192 121.962 5.30829V9.00712V9.00712Z" fill="white"/>
<path d="M131.435 3.86128H129.885V6.86069C129.885 7.62298 130.16 8.00413 130.705 8.00413C130.958 8.00413 131.168 7.98317 131.333 7.93995L131.369 8.98123C131.091 9.08339 130.726 9.13448 130.276 9.13448C129.719 9.13448 129.287 8.96944 128.974 8.63938C128.66 8.30931 128.504 7.75396 128.504 6.97464V3.86128H127.578V2.8331H128.504V1.70144L129.883 1.29541V2.83179H131.434V3.86128H131.435Z" fill="white"/>
<path d="M138.888 9.00739H137.479V5.49717C137.479 4.3904 137.055 3.83636 136.204 3.83636C135.552 3.83636 135.106 4.15726 134.861 4.79905C134.819 4.93396 134.795 5.09899 134.795 5.29284V9.00608H133.389V0H134.795V3.7211H134.822C135.265 3.04394 135.901 2.70602 136.724 2.70602C137.307 2.70602 137.79 2.89201 138.172 3.26529C138.649 3.73027 138.888 4.42184 138.888 5.33607V9.00739V9.00739Z" fill="white"/>
<path d="M146.577 5.62792C146.577 5.87416 146.559 6.08111 146.525 6.25007H142.303C142.322 6.86043 142.523 7.3254 142.914 7.64761C143.271 7.93576 143.732 8.07984 144.296 8.07984C144.921 8.07984 145.491 7.98291 146.004 7.78776L146.224 8.74128C145.624 8.99538 144.917 9.12243 144.099 9.12243C143.118 9.12243 142.346 8.84082 141.787 8.27762C141.225 7.71441 140.947 6.95866 140.947 6.01038C140.947 5.07912 141.207 4.30373 141.729 3.68551C142.275 3.02538 143.012 2.69531 143.943 2.69531C144.854 2.69531 145.546 3.02538 146.013 3.68551C146.391 4.20942 146.577 4.85777 146.577 5.62792ZM145.234 5.27297C145.245 4.86563 145.152 4.5146 144.961 4.21859C144.717 3.83745 144.345 3.64622 143.841 3.64622C143.381 3.64622 143.007 3.83221 142.721 4.20549C142.487 4.50282 142.348 4.85777 142.303 5.27297H145.234Z" fill="white"/>
<path d="M56.0283 32.8335H52.9775L51.3064 27.7135H45.4976L43.9057 32.8335H40.9355L46.6905 15.4028H50.2451L56.0283 32.8335ZM50.8026 25.5655L49.2913 21.014C49.1314 20.549 48.8319 19.454 48.3899 17.7303H48.3362C48.1602 18.4717 47.8767 19.5666 47.4872 21.014L46.0027 25.5655H50.8026V25.5655Z" fill="white"/>
<path d="M70.8281 26.3947C70.8281 28.5322 70.2357 30.2219 69.0509 31.4622C67.9896 32.5664 66.6718 33.1178 65.0987 33.1178C63.4006 33.1178 62.1809 32.5231 61.438 31.3339H61.3843V37.9548H58.5202V24.4025C58.5202 23.0586 58.4839 21.6794 58.4141 20.2649H60.9329L61.0927 22.257H61.1465C62.1016 20.756 63.5511 20.0068 65.4963 20.0068C67.017 20.0068 68.2865 20.5923 69.3021 21.7646C70.3203 22.9381 70.8281 24.4811 70.8281 26.3947ZM67.9103 26.4968C67.9103 25.2735 67.6282 24.2649 67.0613 23.4712C66.442 22.6434 65.6105 22.2295 64.568 22.2295C63.8614 22.2295 63.2193 22.4601 62.6457 22.9146C62.0707 23.373 61.6946 23.9716 61.5186 24.7129C61.4299 25.0587 61.3856 25.3416 61.3856 25.5643V27.6599C61.3856 28.5741 61.6731 29.3456 62.248 29.9756C62.823 30.6056 63.5699 30.92 64.4888 30.92C65.5675 30.92 66.4071 30.5139 67.0076 29.7045C67.6094 28.8937 67.9103 27.8249 67.9103 26.4968Z" fill="white"/>
<path d="M85.6549 26.3947C85.6549 28.5322 85.0625 30.2219 83.8763 31.4622C82.8164 32.5664 81.4985 33.1178 79.9255 33.1178C78.2274 33.1178 77.0077 32.5231 76.2661 31.3339H76.2124V37.9548H73.3483V24.4025C73.3483 23.0586 73.312 21.6794 73.2422 20.2649H75.761L75.9209 22.257H75.9746C76.9284 20.756 78.3779 20.0068 80.3244 20.0068C81.8438 20.0068 83.1133 20.5923 84.1315 21.7646C85.1458 22.9381 85.6549 24.4811 85.6549 26.3947ZM82.7371 26.4968C82.7371 25.2735 82.4537 24.2649 81.8868 23.4712C81.2675 22.6434 80.4386 22.2295 79.3948 22.2295C78.6869 22.2295 78.0461 22.4601 77.4711 22.9146C76.8962 23.373 76.5213 23.9716 76.3454 24.7129C76.258 25.0587 76.2124 25.3416 76.2124 25.5643V27.6599C76.2124 28.5741 76.4999 29.3456 77.0721 29.9756C77.6471 30.6043 78.394 30.92 79.3156 30.92C80.3943 30.92 81.2339 30.5139 81.8344 29.7045C82.4362 28.8937 82.7371 27.8249 82.7371 26.4968Z" fill="white"/>
<path d="M102.231 27.9454C102.231 29.4281 101.704 30.6344 100.644 31.5656C99.4789 32.5833 97.8575 33.0915 95.7739 33.0915C93.8502 33.0915 92.308 32.73 91.1406 32.0057L91.8043 29.6782C93.0616 30.4196 94.4413 30.7915 95.9445 30.7915C97.0232 30.7915 97.8628 30.5532 98.466 30.079C99.0665 29.6049 99.3661 28.9683 99.3661 28.1746C99.3661 27.4673 99.1189 26.8714 98.6232 26.388C98.1302 25.9047 97.3067 25.4555 96.1568 25.0403C93.0267 23.9021 91.463 22.2347 91.463 20.0421C91.463 18.6092 92.0111 17.4343 93.1087 16.5201C94.2022 15.6046 95.6611 15.1475 97.4854 15.1475C99.1122 15.1475 100.464 15.4238 101.542 15.9752L100.826 18.2517C99.8188 17.7173 98.6796 17.4501 97.4048 17.4501C96.3972 17.4501 95.61 17.6924 95.0458 18.1744C94.5689 18.6053 94.3298 19.1305 94.3298 19.7527C94.3298 20.4416 94.6025 21.0114 95.1506 21.4593C95.6275 21.8732 96.494 22.3212 97.7514 22.8045C99.2895 23.4083 100.419 24.1143 101.146 24.9237C101.87 25.7305 102.231 26.7404 102.231 27.9454Z" fill="white"/>
<path d="M111.702 22.3607H108.545V28.4629C108.545 30.015 109.101 30.7904 110.216 30.7904C110.728 30.7904 111.153 30.7472 111.489 30.6608L111.568 32.7813C111.004 32.9869 110.261 33.0904 109.341 33.0904C108.209 33.0904 107.326 32.7538 106.687 32.0819C106.052 31.4087 105.732 30.2796 105.732 28.6935V22.358H103.852V20.2624H105.732V17.9611L108.545 17.1333V20.2624H111.702V22.3607Z" fill="white"/>
<path d="M125.945 26.4459C125.945 28.3778 125.378 29.964 124.247 31.2043C123.06 32.4814 121.486 33.1179 119.523 33.1179C117.632 33.1179 116.126 32.5063 115.003 31.2829C113.88 30.0596 113.318 28.5154 113.318 26.6542C113.318 24.7065 113.896 23.1112 115.055 21.8708C116.212 20.6291 117.773 20.0083 119.736 20.0083C121.627 20.0083 123.149 20.62 124.298 21.8446C125.397 23.0326 125.945 24.5664 125.945 26.4459ZM122.973 26.5363C122.973 25.3771 122.719 24.383 122.205 23.5539C121.604 22.5506 120.746 22.0503 119.634 22.0503C118.482 22.0503 117.608 22.5519 117.007 23.5539C116.493 24.3843 116.239 25.3941 116.239 26.5887C116.239 27.7478 116.493 28.7419 117.007 29.5697C117.627 30.573 118.492 31.0734 119.608 31.0734C120.702 31.0734 121.56 30.5626 122.179 29.5435C122.707 28.6987 122.973 27.6941 122.973 26.5363Z" fill="white"/>
<path d="M135.256 22.7207C134.973 22.6696 134.671 22.6434 134.354 22.6434C133.346 22.6434 132.567 23.0141 132.019 23.7568C131.542 24.4116 131.303 25.2394 131.303 26.2388V32.8336H128.44L128.467 24.223C128.467 22.7744 128.431 21.4555 128.359 20.2662H130.854L130.959 22.6709H131.038C131.34 21.8445 131.817 21.1791 132.47 20.6801C133.108 20.2308 133.797 20.0068 134.54 20.0068C134.805 20.0068 135.044 20.0252 135.256 20.0579V22.7207Z" fill="white"/>
<path d="M148.064 25.9547C148.064 26.455 148.03 26.8768 147.959 27.2213H139.367C139.4 28.4629 139.815 29.4125 140.613 30.0674C141.337 30.6529 142.274 30.9463 143.424 30.9463C144.696 30.9463 145.857 30.7485 146.9 30.3517L147.349 32.2901C146.129 32.8088 144.689 33.0668 143.027 33.0668C141.028 33.0668 139.459 32.4932 138.318 31.3471C137.178 30.201 136.607 28.662 136.607 26.7314C136.607 24.8362 137.138 23.2579 138.201 21.9992C139.313 20.6553 140.816 19.9834 142.708 19.9834C144.566 19.9834 145.972 20.6553 146.927 21.9992C147.683 23.0666 148.064 24.3869 148.064 25.9547ZM145.333 25.2304C145.351 24.4026 145.165 23.6875 144.776 23.0837C144.281 22.307 143.519 21.9193 142.494 21.9193C141.558 21.9193 140.796 22.2978 140.214 23.0575C139.737 23.6613 139.454 24.3856 139.367 25.2291H145.333V25.2304Z" fill="white"/>
</svg>
