<svg width="64" height="64" viewBox="0 0 64 64" fill="none" xmlns="http://www.w3.org/2000/svg">
<g clip-path="url(#clip0_2134_159)">
<path fill-rule="evenodd" clip-rule="evenodd" d="M6 0C2.68629 0 0 2.68629 0 6V58C0 61.3137 2.68629 64 6 64H58C61.3137 64 64 61.3137 64 58V6C64 2.68629 61.3137 0 58 0H6ZM20.759 9C21.2352 9 21.6454 9.33579 21.7394 9.80261L22.0683 11.4364C22.1323 11.754 22.3482 12.0171 22.6348 12.1682C22.8046 12.2576 22.971 12.3534 23.1337 12.4551C23.4072 12.6262 23.7415 12.6808 24.0472 12.578L25.6466 12.0402C26.0969 11.8887 26.5916 12.075 26.8301 12.4858L28.5848 15.5071C28.8252 15.9211 28.7385 16.4474 28.3779 16.7624L27.1202 17.8611C26.8756 18.0748 26.7544 18.3938 26.7662 18.7183C26.773 18.906 26.773 19.0939 26.7662 19.2816C26.7544 19.6062 26.8757 19.9252 27.1204 20.1389L28.3786 21.2376C28.7393 21.5526 28.8261 22.079 28.5856 22.4931L26.8311 25.5141C26.5925 25.925 26.0978 26.1112 25.6475 25.9598L24.0466 25.4212C23.7407 25.3183 23.4062 25.3731 23.1326 25.5444C22.9699 25.6463 22.8035 25.7421 22.6337 25.8317C22.3472 25.9828 22.1314 26.2459 22.0676 26.5635L21.7392 28.1971C21.6453 28.6641 21.2351 29 20.7588 29H17.2397C16.7634 29 16.3532 28.6641 16.2593 28.1971L15.9311 26.5644C15.8671 26.2463 15.6507 25.9829 15.3637 25.8316C15.1936 25.7419 15.0274 25.6461 14.8652 25.5446C14.5921 25.3736 14.2581 25.3191 13.9527 25.4218L12.3518 25.9599C11.9015 26.1113 11.4069 25.925 11.1684 25.5143L9.41371 22.4929C9.17328 22.0789 9.26001 21.5526 9.62055 21.2376L10.8783 20.1389C11.1228 19.9252 11.244 19.6062 11.2323 19.2817C11.2254 19.094 11.2254 18.906 11.2323 18.7183C11.244 18.3938 11.1228 18.0748 10.8783 17.8611L9.62045 16.7623C9.25995 16.4474 9.1732 15.9211 9.41354 15.5071L11.1674 12.486C11.406 12.0751 11.9007 11.8888 12.3511 12.0403L13.9518 12.5788C14.2577 12.6817 14.5923 12.6269 14.8658 12.4556C15.0285 12.3537 15.1949 12.2579 15.3648 12.1683C15.6513 12.0172 15.867 11.7541 15.9309 11.4365L16.2593 9.80291C16.3532 9.33594 16.7634 9 17.2397 9H20.759ZM16.413 21.5713C17.0989 22.2532 18.0292 22.6364 18.9992 22.6364C19.9693 22.6364 20.8995 22.2532 21.5855 21.5713C22.2714 20.8893 22.6567 19.9644 22.6567 19C22.6567 18.0356 22.2714 17.1107 21.5855 16.4287C20.8995 15.7468 19.9693 15.3636 18.9992 15.3636C18.0292 15.3636 17.0989 15.7468 16.413 16.4287C15.7271 17.1107 15.3418 18.0356 15.3418 19C15.3418 19.9644 15.7271 20.8893 16.413 21.5713ZM34.9997 16C34.9997 15.4477 35.4477 14.9974 35.9993 15.025C39.6041 15.2054 43.0998 16.3585 46.1111 18.3706C49.4001 20.5682 51.9635 23.6918 53.4773 27.3463C54.991 31.0009 55.3871 35.0222 54.6154 38.9018C53.8437 42.7814 51.9389 46.3451 49.1418 49.1421C46.3448 51.9392 42.7811 53.844 38.9015 54.6157C35.0219 55.3874 31.0005 54.9913 27.346 53.4776C23.6915 51.9638 20.5679 49.4004 18.3703 46.1114C16.3582 43.1001 15.205 39.6044 15.0247 35.9996C14.9971 35.448 15.4474 35 15.9997 35H19.9388C20.4911 35 20.9351 35.4483 20.9744 35.9992C21.1474 38.4284 21.9491 40.7773 23.3085 42.8118C24.8535 45.1241 27.0495 46.9263 29.6188 47.9905C32.1881 49.0548 35.0153 49.3332 37.7428 48.7907C40.4704 48.2481 42.9758 46.909 44.9422 44.9425C46.9087 42.9761 48.2478 40.4707 48.7904 37.7431C49.3329 35.0156 49.0545 32.1884 47.9902 29.6191C46.926 27.0499 45.1238 24.8538 42.8115 23.3088C40.777 21.9494 38.4281 21.1477 35.9989 20.9747C35.448 20.9354 34.9997 20.4914 34.9997 19.9391V16ZM35.2197 28.2778V26.5H38.1397V28.5279C39.7931 29.0824 41.0197 30.553 41.0197 32.3333C41.0194 33.2141 40.7118 34.0603 40.1589 34.7511C40.9749 35.4809 41.4997 36.5091 41.4997 37.6667C41.4997 39.6157 40.0339 41.1886 38.1397 41.5999V43.5H35.2197V41.7222H34.2997V43.5H31.3797V41.7222H28.4997V38.9444H30.4197V31.0556H28.4997V28.2778H31.3797V26.5H34.2997V28.2778H35.2197ZM38.5797 37.6667C38.5797 36.9979 37.9794 36.3889 37.1597 36.3889H33.3397V38.9444H37.1597C37.9794 38.9444 38.5797 38.3354 38.5797 37.6667ZM38.0997 32.3333C38.0997 31.6646 37.4994 31.0556 36.6797 31.0556H33.3397V33.6111H36.6797C37.4994 33.6111 38.0997 33.0021 38.0997 32.3333Z" fill="#08111B"/>
</g>
<defs>
<clipPath id="clip0_2134_159">
<rect width="64" height="64" fill="white"/>
</clipPath>
</defs>
</svg>
