<svg width="64" height="64" viewBox="0 0 64 64" fill="none" xmlns="http://www.w3.org/2000/svg">
<g clip-path="url(#clip0_2134_747)">
<path fill-rule="evenodd" clip-rule="evenodd" d="M6 0C2.68629 0 0 2.68629 0 6V58C0 61.3137 2.68629 64 6 64H58C61.3137 64 64 61.3137 64 58V6C64 2.68629 61.3137 0 58 0H6ZM30.3504 8.05654C29.7994 8.09451 29.4037 8.59104 29.4645 9.13996L29.9033 13.0969C29.9642 13.6458 30.4587 14.0386 31.0101 14.0082C35.0928 13.7835 39.1321 14.9549 42.4611 17.329C42.9107 17.6497 43.5386 17.5824 43.8837 17.1512L46.3714 14.043C46.7165 13.6118 46.6478 12.9805 46.2026 12.6537C41.6289 9.29559 36.0111 7.66645 30.3504 8.05654ZM49.6151 17.2116C50.0381 16.8565 50.6707 16.9104 51.0079 17.3478C53.4975 20.5775 55.1266 24.3933 55.7336 28.4369C56.3902 32.8105 55.8254 37.2806 54.1017 41.3536C52.378 45.4265 49.5624 48.944 45.9657 51.5177C42.6405 53.8971 38.7672 55.3842 34.7155 55.8457C34.1667 55.9082 33.6877 55.4915 33.6481 54.9407L33.3627 50.9697C33.3231 50.4188 33.7382 49.943 34.286 49.873C37.2381 49.4953 40.0563 48.3914 42.4851 46.6535C45.1854 44.7212 47.2994 42.0804 48.5935 39.0224C49.8876 35.9645 50.3116 32.6085 49.8186 29.3248C49.3753 26.3714 48.2056 23.5798 46.4214 21.1978C46.0903 20.7557 46.1429 20.1265 46.5659 19.7714L49.6151 17.2116ZM29.0937 54.8155C29.024 55.3634 28.5228 55.7531 27.9783 55.6606C25.0485 55.1626 22.2336 54.1243 19.6783 52.5956C17.123 51.067 14.877 49.0777 13.0528 46.7316C12.7138 46.2956 12.8202 45.6697 13.27 45.3491L16.5757 42.993C17.0254 42.6725 17.6477 42.7792 17.9928 43.2104C19.3277 44.8781 20.9514 46.2962 22.7891 47.3957C24.6269 48.4951 26.6443 49.2552 28.745 49.6427C29.2881 49.7429 29.6764 50.2407 29.6066 50.7886L29.0937 54.8155ZM11.1834 41.7819C10.6836 42.0168 10.0859 41.8027 9.87201 41.2935C8.68105 38.458 8.04497 35.4169 8.00186 32.3355C7.95409 28.9204 8.63576 25.5345 10.0013 22.4039C11.3669 19.2734 13.3849 16.4704 15.9205 14.1822C18.2083 12.1176 20.87 10.515 23.7585 9.45899C24.2772 9.26935 24.8407 9.56181 25.0086 10.088L26.2187 13.8808C26.3865 14.407 26.0949 14.9669 25.5789 15.1637C23.5002 15.9565 21.5835 17.1284 19.9276 18.6227C18.024 20.3406 16.5089 22.445 15.4837 24.7954C14.4584 27.1457 13.9466 29.6878 13.9825 32.2518C14.0137 34.482 14.4586 36.6841 15.2917 38.7469C15.4985 39.259 15.2864 39.8537 14.7866 40.0886L11.1834 41.7819ZM38 22.8462C38 22.3788 38.3788 22 38.8462 22H42.1538C42.6212 22 43 22.3788 43 22.8462V41.1538C43 41.6212 42.6212 42 42.1538 42H38.8462C38.3788 42 38 41.6212 38 41.1538V22.8462ZM30 29.8462C30 29.3788 30.3788 29 30.8462 29H34.1538C34.6212 29 35 29.3788 35 29.8462V41.1538C35 41.6212 34.6212 42 34.1538 42H30.8462C30.3788 42 30 41.6212 30 41.1538V29.8462ZM22 36.8462C22 36.3788 22.3788 36 22.8462 36H26.1538C26.6212 36 27 36.3788 27 36.8462V41.1538C27 41.6212 26.6212 42 26.1538 42H22.8462C22.3788 42 22 41.6212 22 41.1538V36.8462Z" fill="#08111B"/>
</g>
<defs>
<clipPath id="clip0_2134_747">
<rect width="64" height="64" fill="white"/>
</clipPath>
</defs>
</svg>
