<svg width="64" height="64" viewBox="0 0 64 64" fill="none" xmlns="http://www.w3.org/2000/svg">
<g clip-path="url(#clip0_2134_2003)">
<path fill-rule="evenodd" clip-rule="evenodd" d="M6 0C2.68629 0 0 2.68629 0 6V58C0 61.3137 2.68629 64 6 64H58C61.3137 64 64 61.3137 64 58V6C64 2.68629 61.3137 0 58 0H6ZM32 34C39.1797 34 45 28.1797 45 21C45 13.8203 39.1797 8 32 8C24.8203 8 19 13.8203 19 21C19 28.1797 24.8203 34 32 34ZM30 14C30 13.4477 30.4477 13 31 13H33C33.5523 13 34 13.4477 34 14V19H39.0332C39.5855 19 40.0332 19.4477 40.0332 20V22C40.0332 22.5523 39.5855 23 39.0332 23H31C30.4477 23 30 22.5523 30 22V14ZM56 33C56 35.2091 54.2091 37 52 37C51.543 37 51.1039 36.9234 50.6949 36.7823L36.9878 48.6858C36.9959 48.7895 37 48.8942 37 49C37 51.2091 35.2091 53 33 53C31.0138 53 29.3657 51.5523 29.0533 49.6546L21.1096 45.3991C20.4972 45.78 19.7743 46 19 46C18.8626 46 18.7268 45.9931 18.593 45.9795L15.5614 50.1771C15.8418 50.7237 16 51.3434 16 52C16 54.2091 14.2091 56 12 56C9.79086 56 8 54.2091 8 52C8 49.7909 9.79086 48 12 48C12.0658 48 12.1312 48.0016 12.1962 48.0047L15.3498 43.6382C15.125 43.1382 15 42.5837 15 42C15 39.7909 16.7909 38 19 38C21.1666 38 22.9309 39.7226 22.998 41.8729L30.4892 45.886C31.1756 45.3318 32.0491 45 33 45C33.6069 45 34.1822 45.1351 34.6975 45.377L48.0725 33.7619C48.0249 33.5152 48 33.2605 48 33C48 30.7909 49.7909 29 52 29C54.2091 29 56 30.7909 56 33Z" fill="#08111B"/>
</g>
<defs>
<clipPath id="clip0_2134_2003">
<rect width="64" height="64" fill="white"/>
</clipPath>
</defs>
</svg>
