<svg width="64" height="64" viewBox="0 0 64 64" fill="none" xmlns="http://www.w3.org/2000/svg">
<g clip-path="url(#clip0_2134_2118)">
<path fill-rule="evenodd" clip-rule="evenodd" d="M6 0C2.68629 0 0 2.68629 0 6V58C0 61.3137 2.68629 64 6 64H58C61.3137 64 64 61.3137 64 58V6C64 2.68629 61.3137 0 58 0H6ZM18 10C18 8.89543 18.8954 8 20 8H44C45.1046 8 46 8.89543 46 10V11.7968C44.4269 11.2797 42.7461 11 41 11C32.1634 11 25 18.1634 25 27C25 35.8366 32.1634 43 41 43C42.7461 43 44.4269 42.7203 46 42.2032V54C46 55.1046 45.1046 56 44 56H20C18.8954 56 18 55.1046 18 54V10ZM28 52C27.4477 52 27 52.4477 27 53C27 53.5523 27.4477 54 28 54H36C36.5523 54 37 53.5523 37 53C37 52.4477 36.5523 52 36 52H28ZM41 39C47.6274 39 53 33.6274 53 27C53 20.3726 47.6274 15 41 15C34.3726 15 29 20.3726 29 27C29 33.6274 34.3726 39 41 39ZM34.3225 27.7943C33.932 27.4038 33.932 26.7706 34.3225 26.3801L35.5191 25.1835C35.9097 24.7929 36.5428 24.7929 36.9333 25.1835L40.1427 28.3928L46.0987 22.4368C46.4893 22.0463 47.1224 22.0463 47.5129 22.4368L48.7096 23.6335C49.1001 24.024 49.1001 24.6572 48.7096 25.0477L40.8716 32.8857L40.8547 32.9022L40.8496 32.9072C40.4591 33.2978 39.8259 33.2978 39.4354 32.9072L34.3225 27.7943Z" fill="#08111B"/>
</g>
<defs>
<clipPath id="clip0_2134_2118">
<rect width="64" height="64" fill="white"/>
</clipPath>
</defs>
</svg>
