<svg width="161" height="38" viewBox="0 0 161 38" fill="none" xmlns="http://www.w3.org/2000/svg">
<path d="M0.628722 4.46294C0.272537 4.8216 0.0664062 5.38 0.0664062 6.10314V31.8973C0.0664062 32.6204 0.272537 33.1788 0.628722 33.5375L0.716632 33.6162L15.7431 19.1679V18.8267L0.716632 4.37838L0.628722 4.46294Z" fill="url(#paint0_linear_2134_2706)"/>
<path d="M20.7454 23.9863L15.7422 19.1678V18.8266L20.7515 14.0081L20.8637 14.0708L26.796 17.3176C28.489 18.2391 28.489 19.7553 26.796 20.6826L20.8637 23.9236L20.7454 23.9863Z" fill="url(#paint1_linear_2134_2706)"/>
<path d="M20.8647 23.924L15.7432 18.9976L0.628906 33.5377C1.19122 34.1063 2.10821 34.1749 3.15099 33.6063L20.8647 23.924Z" fill="url(#paint2_linear_2134_2706)"/>
<path d="M20.8647 14.0711L3.15099 4.38886C2.10821 3.82609 1.19122 3.89461 0.628906 4.46321L15.7432 18.9976L20.8647 14.0711Z" fill="url(#paint3_linear_2134_2706)"/>
<path d="M78.6948 20.7384C75.3463 20.7384 72.6108 23.2265 72.6108 26.6594C72.6108 30.0644 75.3463 32.5786 78.6948 32.5786C82.0505 32.5786 84.786 30.0644 84.786 26.6594C84.786 23.2265 82.0505 20.7384 78.6948 20.7384ZM78.6948 30.2471C76.8575 30.2471 75.2768 28.7664 75.2768 26.6594C75.2768 24.5245 76.8575 23.0699 78.6948 23.0699C80.5321 23.0699 82.12 24.5245 82.12 26.6594C82.12 28.7664 80.5321 30.2471 78.6948 30.2471ZM65.4201 20.7384C62.0644 20.7384 59.3361 23.2265 59.3361 26.6594C59.3361 30.0644 62.0644 32.5786 65.4201 32.5786C68.774 32.5786 71.5041 30.0644 71.5041 26.6594C71.5041 23.2265 68.774 20.7384 65.4201 20.7384ZM65.4201 30.2471C63.581 30.2471 61.9949 28.7664 61.9949 26.6594C61.9949 24.5245 63.581 23.0699 65.4201 23.0699C67.2574 23.0699 68.8381 24.5245 68.8381 26.6594C68.8381 28.7664 67.2574 30.2471 65.4201 30.2471ZM49.6237 22.5531V25.0691H55.7772C55.5972 26.4749 55.1161 27.5084 54.3783 28.2288C53.4801 29.0987 52.0812 30.0644 49.6237 30.0644C45.8368 30.0644 42.8714 27.0804 42.8714 23.3831C42.8714 19.6858 45.8368 16.7018 49.6237 16.7018C51.6713 16.7018 53.1611 17.483 54.2607 18.4957L56.0766 16.7227C54.5387 15.289 52.4929 14.1876 49.6237 14.1876C44.4307 14.1876 40.0664 18.313 40.0664 23.3831C40.0664 28.4532 44.4307 32.5786 49.6237 32.5786C52.4305 32.5786 54.5387 31.6808 56.196 29.9965C57.8944 28.3384 58.4236 26.0069 58.4236 24.1243C58.4236 23.5397 58.3737 23.002 58.2846 22.5531H49.6237ZM114.217 24.5036C113.716 23.1795 112.171 20.7384 109.024 20.7384C105.905 20.7384 103.309 23.1378 103.309 26.6594C103.309 29.9757 105.879 32.5786 109.323 32.5786C112.109 32.5786 113.716 30.9204 114.377 29.9548L112.31 28.6098C111.621 29.5946 110.681 30.2471 109.323 30.2471C107.974 30.2471 107.007 29.6433 106.387 28.4532L114.497 25.1769L114.217 24.5036ZM105.948 26.4749C105.879 24.1922 107.764 23.0229 109.115 23.0229C110.174 23.0229 111.072 23.5397 111.371 24.2792L105.948 26.4749ZM99.3563 32.2184H102.022V14.8192H99.3563V32.2184ZM94.9902 22.0573H94.9011C94.3023 21.3648 93.16 20.7384 91.7129 20.7384C88.6763 20.7384 85.8998 23.3413 85.8998 26.6785C85.8998 29.9965 88.6763 32.5786 91.7129 32.5786C93.16 32.5786 94.3023 31.947 94.9011 31.2336H94.9902V32.0827C94.9902 34.3463 93.7516 35.5625 91.7539 35.5625C90.1251 35.5625 89.1147 34.4142 88.6977 33.4485L86.3792 34.3933C87.0474 35.9627 88.817 37.894 91.7539 37.894C94.8797 37.894 97.5172 36.0984 97.5172 31.7295V21.0986H94.9902V22.0573ZM91.941 30.2471C90.1037 30.2471 88.5658 28.7455 88.5658 26.6785C88.5658 24.5923 90.1037 23.0699 91.941 23.0699C93.7516 23.0699 95.1791 24.5923 95.1791 26.6785C95.1791 28.7455 93.7516 30.2471 91.941 30.2471ZM126.699 14.8192H120.322V32.2184H122.981V25.6259H126.699C129.652 25.6259 132.548 23.5397 132.548 20.2217C132.548 16.9054 129.645 14.8192 126.699 14.8192ZM126.768 23.2056H122.981V17.2394H126.768C128.754 17.2394 129.887 18.8489 129.887 20.2217C129.887 21.5684 128.754 23.2056 126.768 23.2056ZM143.204 20.7053C141.283 20.7053 139.286 21.5336 138.464 23.3692L140.824 24.3348C141.331 23.3692 142.265 23.056 143.253 23.056C144.632 23.056 146.031 23.8651 146.052 25.2935V25.4762C145.571 25.2048 144.541 24.8029 143.274 24.8029C140.733 24.8029 138.143 26.1687 138.143 28.7177C138.143 31.0492 140.225 32.5507 142.565 32.5507C144.354 32.5507 145.341 31.7626 145.961 30.8456H146.052V32.1906H148.62V25.5162C148.62 22.4314 146.261 20.7053 143.204 20.7053ZM142.884 30.2401C142.014 30.2401 140.802 29.8191 140.802 28.7664C140.802 27.4197 142.313 26.903 143.621 26.903C144.792 26.903 145.341 27.1552 146.052 27.4876C145.844 29.0987 144.423 30.2401 142.884 30.2401ZM157.976 21.0864L154.92 28.629H154.829L151.669 21.0864H148.802L153.549 31.6268L150.841 37.4921H153.619L160.934 21.0864H157.976ZM134.009 32.2184H136.675V14.8192H134.009V32.2184Z" fill="white"/>
<path d="M48.7131 4.80945C48.7131 5.97172 48.3567 6.90258 47.6545 7.59681C46.8472 8.4198 45.7958 8.83389 44.5074 8.83389C43.2759 8.83389 42.2245 8.41283 41.362 7.58289C40.4977 6.74077 40.0664 5.70726 40.0664 4.47017C40.0664 3.23309 40.4977 2.19957 41.362 1.36441C42.2245 0.527507 43.2759 0.106445 44.5074 0.106445C45.1204 0.106445 45.7049 0.22998 46.2627 0.45965C46.8187 0.691059 47.2714 1.00424 47.5993 1.39051L46.8544 2.12476C46.2823 1.46533 45.5035 1.13996 44.5074 1.13996C43.6092 1.13996 42.8304 1.44619 42.1693 2.06386C41.5152 2.68327 41.1873 3.48537 41.1873 4.47017C41.1873 5.45497 41.5152 6.26403 42.1693 6.88344C42.8304 7.49415 43.6092 7.80734 44.5074 7.80734C45.4608 7.80734 46.2627 7.49415 46.8954 6.87648C47.3124 6.4676 47.5494 5.90387 47.6117 5.18354H44.5074V4.17786H48.6489C48.6988 4.39535 48.7131 4.60588 48.7131 4.80945Z" fill="white" stroke="white" stroke-width="0.171315" stroke-miterlimit="10"/>
<path d="M55.2826 1.32267H51.3923V3.96735H54.8995V4.97302H51.3923V7.6177H55.2826V8.64252H50.291V0.297852H55.2826V1.32267Z" fill="white" stroke="white" stroke-width="0.171315" stroke-miterlimit="10"/>
<path d="M59.9211 8.64252H58.8198V1.32267H56.4336V0.297852H62.3091V1.32267H59.9211V8.64252Z" fill="white" stroke="white" stroke-width="0.171315" stroke-miterlimit="10"/>
<path d="M66.5605 8.64252V0.297852H67.6601V8.64252H66.5605Z" fill="white" stroke="white" stroke-width="0.171315" stroke-miterlimit="10"/>
<path d="M72.5344 8.64252H71.442V1.32267H69.0469V0.297852H74.9295V1.32267H72.5344V8.64252Z" fill="white" stroke="white" stroke-width="0.171315" stroke-miterlimit="10"/>
<path d="M86.0524 7.56897C85.2095 8.41283 84.1652 8.83389 82.9195 8.83389C81.6667 8.83389 80.6224 8.41283 79.7795 7.56897C78.9383 6.72685 78.5195 5.69334 78.5195 4.47017C78.5195 3.24701 78.9383 2.21349 79.7795 1.37137C80.6224 0.527507 81.6667 0.106445 82.9195 0.106445C84.158 0.106445 85.2024 0.527506 86.0453 1.37833C86.8935 2.22741 87.3123 3.25396 87.3123 4.47017C87.3123 5.69334 86.8935 6.72685 86.0524 7.56897ZM80.5939 6.86952C81.2283 7.49415 81.9999 7.80734 82.9195 7.80734C83.8319 7.80734 84.6107 7.49415 85.238 6.86952C85.8706 6.24489 86.1914 5.44279 86.1914 4.47017C86.1914 3.49755 85.8706 2.69545 85.238 2.07082C84.6107 1.44619 83.8319 1.133 82.9195 1.133C81.9999 1.133 81.2283 1.44619 80.5939 2.07082C79.9612 2.69545 79.6405 3.49755 79.6405 4.47017C79.6405 5.44279 79.9612 6.24489 80.5939 6.86952Z" fill="white" stroke="white" stroke-width="0.171315" stroke-miterlimit="10"/>
<path d="M88.8574 8.64252V0.297852H90.194L94.3498 6.78776H94.3979L94.3498 5.18355V0.297852H95.4494V8.64252H94.3017L89.9498 1.83246H89.9017L89.9498 3.44363V8.64252H88.8574Z" fill="white" stroke="white" stroke-width="0.171315" stroke-miterlimit="10"/>
<defs>
<linearGradient id="paint0_linear_2134_2706" x1="14.4089" y1="32.1659" x2="-5.15074" y2="11.8319" gradientUnits="userSpaceOnUse">
<stop stop-color="#00A0FF"/>
<stop offset="0.0066" stop-color="#00A1FF"/>
<stop offset="0.2601" stop-color="#00BEFF"/>
<stop offset="0.5122" stop-color="#00D2FF"/>
<stop offset="0.7604" stop-color="#00DFFF"/>
<stop offset="1" stop-color="#00E3FF"/>
</linearGradient>
<linearGradient id="paint1_linear_2134_2706" x1="29.0006" y1="18.9956" x2="-0.339153" y2="18.9956" gradientUnits="userSpaceOnUse">
<stop stop-color="#FFE000"/>
<stop offset="0.4087" stop-color="#FFBD00"/>
<stop offset="0.7754" stop-color="#FFA500"/>
<stop offset="1" stop-color="#FF9C00"/>
</linearGradient>
<linearGradient id="paint2_linear_2134_2706" x1="18.0798" y1="16.3195" x2="-8.44464" y2="-11.2551" gradientUnits="userSpaceOnUse">
<stop stop-color="#FF3A44"/>
<stop offset="1" stop-color="#C31162"/>
</linearGradient>
<linearGradient id="paint3_linear_2134_2706" x1="-3.17569" y1="42.1193" x2="8.66867" y2="29.8061" gradientUnits="userSpaceOnUse">
<stop stop-color="#32A071"/>
<stop offset="0.0685" stop-color="#2DA771"/>
<stop offset="0.4762" stop-color="#15CF74"/>
<stop offset="0.8009" stop-color="#06E775"/>
<stop offset="1" stop-color="#00F076"/>
</linearGradient>
</defs>
</svg>
