<svg width="64" height="65" viewBox="0 0 64 65" fill="none" xmlns="http://www.w3.org/2000/svg">
<path d="M0 6.5C0 3.18629 2.68629 0.5 6 0.5H58C61.3137 0.5 64 3.18629 64 6.5V58.5C64 61.8137 61.3137 64.5 58 64.5H6C2.68629 64.5 0 61.8137 0 58.5V6.5Z" fill="#111111"/>
<path d="M30.9127 10.5013C31.5196 10.471 32.0135 10.9668 32.0137 11.5745V15.9111C32.0135 16.5187 31.5199 17.0076 30.9137 17.0508C28.2401 17.2413 25.6548 18.1232 23.4157 19.6193C20.8706 21.3198 18.8862 23.7373 17.7148 26.5652C16.5436 29.393 16.2379 32.5051 16.835 35.507C17.4322 38.5089 18.9064 41.2661 21.0707 43.4304C23.235 45.5947 25.9921 47.0689 28.9941 47.6661C31.9962 48.2632 35.108 47.9566 37.9359 46.7852C40.7638 45.6139 43.1813 43.6304 44.8818 41.0854C46.3779 38.8463 47.2598 36.2609 47.4502 33.5874C47.4934 32.9811 47.9822 32.4875 48.59 32.4874H52.9255C53.5333 32.4874 54.0289 32.9804 53.9987 33.5874C53.8002 37.555 52.5309 41.4029 50.3163 44.7173C47.8975 48.3371 44.4599 51.1584 40.4377 52.8245C36.4154 54.4906 31.9891 54.9264 27.719 54.077C23.4489 53.2276 19.5269 51.1313 16.4483 48.0528C13.3697 44.9742 11.2724 41.0522 10.423 36.7821C9.57363 32.512 10.0095 28.0857 11.6755 24.0633C13.3417 20.041 16.1637 16.6026 19.7837 14.1837C23.098 11.9693 26.9454 10.6999 30.9127 10.5013Z" fill="white"/>
<path d="M45.392 17.8909C46.2512 17.0317 47.6438 17.0318 48.503 17.8909L50.0585 19.4463C50.9174 20.3055 50.9175 21.6982 50.0585 22.5573L32.4477 40.168C32.0554 40.5602 31.5516 40.7711 31.0383 40.805C30.3958 40.8776 29.7275 40.6693 29.2347 40.1766L21.4563 32.3982C20.5974 31.5391 20.5975 30.1464 21.4563 29.2873L23.0118 27.7318C23.8709 26.8727 25.2635 26.8728 26.1227 27.7318L30.8364 32.4455L45.392 17.8909Z" fill="white"/>
</svg>
